<svg version="1.1" id="Layer_1" xmlns="http://www.w3.org/2000/svg" xmlns:xlink="http://www.w3.org/1999/xlink" x="0px" y="0px"
	 width="100%" viewBox="0 0 3000 2000" enable-background="new 0 0 3000 2000" xml:space="preserve">
<path fill="#D7DEF1" opacity="1.000000" stroke="none" 
	d="
M3002.000000,1296.000000 
	C3002.000000,1297.500000 3002.000000,1299.000000 3001.062744,1301.250000 
	C2829.529297,1302.000000 2658.933350,1301.945068 2488.337158,1302.087280 
	C2471.758789,1302.101074 2455.185303,1303.482178 2438.601562,1303.933838 
	C2430.661865,1304.150269 2426.952881,1309.126465 2423.891113,1315.350708 
	C2420.596436,1322.049194 2422.732910,1327.343750 2427.429932,1332.538696 
	C2433.427979,1339.172729 2441.008301,1340.042236 2449.229004,1340.039917 
	C2633.486084,1339.987915 2817.742920,1340.000000 3002.000000,1340.000000 
	C3002.000000,1344.083374 3002.000000,1348.166870 3001.062744,1353.125122 
	C2844.807861,1354.000000 2689.490234,1354.000000 2534.172607,1354.000000 
	C2503.509033,1354.000000 2472.845459,1353.912354 2442.182373,1354.037964 
	C2427.202393,1354.099365 2419.168701,1365.722900 2424.204834,1379.691650 
	C2425.331543,1382.816528 2426.879395,1385.792480 2427.952393,1388.932861 
	C2429.947998,1394.774170 2434.529053,1397.086548 2440.068115,1397.866577 
	C2443.011963,1398.281006 2446.056885,1397.997314 2449.056152,1397.997314 
	C2633.370850,1398.000244 2817.685303,1398.000000 3002.000000,1398.000000 
	C3002.000000,1466.722778 3002.000000,1535.445435 3001.263428,1605.115234 
	C2998.969971,1605.586060 2997.146973,1605.479492 2995.895264,1604.579102 
	C2971.438965,1586.984741 2947.012451,1569.348267 2922.654297,1551.618042 
	C2888.932861,1527.072754 2855.172852,1502.578735 2821.636230,1477.783325 
	C2807.781494,1467.540039 2792.093018,1461.535522 2775.901367,1455.379639 
	C2772.194092,1448.452759 2765.265869,1449.738037 2759.889893,1447.858765 
	C2743.193115,1442.022217 2725.830322,1442.363403 2708.832275,1445.631958 
	C2685.253906,1450.165527 2662.843750,1457.870117 2643.392334,1472.972656 
	C2632.694824,1481.278687 2620.690674,1487.879883 2609.587891,1495.693115 
	C2599.312256,1502.923950 2589.519043,1510.835815 2579.395020,1518.286987 
	C2558.595459,1533.594971 2538.008057,1549.216553 2516.767822,1563.890869 
	C2502.809814,1573.534180 2490.656738,1586.174561 2472.867188,1589.953979 
	C2466.397217,1591.328735 2460.817871,1592.657104 2454.727051,1589.504272 
	C2452.761475,1588.486938 2450.274658,1588.476685 2447.693359,1587.420166 
	C2445.171875,1583.916748 2442.939209,1581.030518 2440.801025,1578.076050 
	C2419.796875,1549.051514 2398.854736,1519.981812 2377.802002,1490.992310 
	C2357.335693,1462.810669 2336.789551,1434.687134 2316.221191,1406.579834 
	C2307.223877,1394.284790 2298.625244,1381.791992 2285.852783,1372.649536 
	C2275.385254,1365.156738 2263.895264,1360.361450 2251.896484,1355.360107 
	C2249.585205,1352.713867 2247.710449,1349.857544 2245.154785,1348.975952 
	C2235.805420,1345.751343 2226.782959,1341.283447 2216.347412,1341.891846 
	C2207.386230,1342.414185 2198.368896,1342.100220 2189.378906,1341.976929 
	C2175.258545,1341.783325 2161.639160,1345.128418 2148.389648,1349.118530 
	C2123.984863,1356.468018 2099.990234,1365.168945 2075.735840,1373.032227 
	C2060.922363,1377.834717 2045.867065,1381.890869 2031.054932,1386.697021 
	C2005.218872,1395.079834 1979.508667,1403.849243 1953.704834,1412.332153 
	C1930.710938,1419.891113 1907.655151,1427.261719 1884.638550,1434.751709 
	C1852.112915,1445.335938 1819.573120,1455.877563 1787.087036,1466.581787 
	C1761.875122,1474.889160 1736.582153,1482.991455 1711.621948,1492.006226 
	C1696.429443,1497.493286 1680.473145,1501.670044 1667.541626,1512.234009 
	C1659.077881,1519.148315 1649.681396,1525.191162 1642.315552,1533.122314 
	C1626.919922,1549.699341 1617.296997,1569.651978 1611.931519,1591.680542 
	C1611.194458,1594.706665 1608.979126,1597.368164 1607.477661,1600.213867 
	C1606.295898,1602.453735 1604.704590,1604.599731 1604.084961,1606.991943 
	C1601.892944,1615.456055 1599.579102,1616.916992 1591.703735,1613.822388 
	C1588.241089,1612.461914 1584.927612,1610.555664 1581.017090,1614.208130 
	C1574.858032,1611.146362 1569.099365,1608.588623 1564.069580,1605.007202 
	C1543.889038,1590.638184 1524.710327,1574.611206 1499.893677,1567.358887 
	C1489.585205,1558.499512 1477.122070,1555.595093 1464.917114,1554.344238 
	C1438.011475,1551.586670 1412.325439,1557.019165 1387.834351,1568.937622 
	C1364.682251,1580.204468 1345.128662,1596.701904 1324.029053,1610.955688 
	C1316.653442,1615.938232 1309.770874,1622.443359 1301.627441,1625.278442 
	C1293.126831,1628.237793 1285.001343,1633.633545 1275.319092,1632.893921 
	C1274.864990,1632.859253 1274.343018,1633.712280 1273.270752,1633.813721 
	C1257.891357,1613.767822 1238.124146,1600.742920 1215.833130,1591.059814 
	C1194.796265,1581.921509 1173.760376,1572.778320 1152.806519,1563.452271 
	C1125.768799,1551.418579 1098.858398,1539.098267 1071.810181,1527.088623 
	C1038.996338,1512.518799 1006.047913,1498.251953 973.247498,1483.652344 
	C944.995361,1471.077026 916.911438,1458.124268 888.677185,1445.508301 
	C847.091125,1426.926147 805.548096,1408.239746 763.747375,1390.150757 
	C750.702515,1384.505737 736.879761,1380.660522 723.425537,1375.955933 
	C722.208252,1375.530396 721.081299,1374.846436 719.824829,1373.528931 
	C717.373718,1371.206909 715.214539,1368.957764 712.614441,1368.177002 
	C690.435608,1361.517578 667.707520,1361.969360 645.590637,1366.804688 
	C616.860352,1373.085815 591.339539,1386.606445 570.823669,1408.249023 
	C553.460266,1426.565674 536.443054,1445.210327 519.261475,1463.699585 
	C501.399628,1482.920776 483.500702,1502.107544 465.682098,1521.368652 
	C463.215912,1524.034668 461.507172,1527.502197 458.778809,1529.806641 
	C448.873230,1538.172974 444.414734,1552.659180 429.696594,1555.689819 
	C428.298950,1555.977539 427.393433,1558.173340 425.961792,1558.883423 
	C423.389557,1560.159546 420.662872,1561.429810 417.869049,1561.873779 
	C414.617676,1562.390503 411.224854,1562.017212 407.367981,1561.626953 
	C386.191772,1533.992920 365.136139,1507.057617 344.989746,1479.458618 
	C318.107330,1442.631836 266.314087,1426.591553 223.932083,1441.079102 
	C173.282578,1458.392700 122.641853,1475.731812 72.012970,1493.105347 
	C62.267696,1496.449585 52.667892,1500.229980 42.870670,1503.407349 
	C29.311775,1507.804321 15.629442,1511.820557 1.999990,1516.000000 
	C2.000000,1011.405701 2.000000,506.811401 2.000000,2.217121 
	C2.260912,2.144747 2.521823,2.008927 2.782736,2.008924 
	C1002.306030,1.999983 2001.829224,2.000000 3002.000000,2.000000 
	C3002.000000,431.389191 3002.000000,860.778687 3001.062744,1291.077637 
	C2819.613037,1292.148682 2639.100342,1292.309570 2458.587891,1292.531738 
	C2458.240479,1292.532227 2457.894043,1293.441284 2457.546875,1293.928467 
	C2457.859863,1294.434204 2458.172607,1295.377808 2458.486328,1295.378296 
	C2639.657471,1295.627563 2820.828857,1295.813477 3002.000000,1296.000000 
M781.000000,372.001221 
	C1022.651123,372.001221 1264.302246,372.001312 1505.953369,372.000061 
	C1508.953125,372.000061 1511.966431,372.162231 1514.949463,371.934296 
	C1520.259033,371.528625 1526.725098,365.903595 1527.817749,360.995239 
	C1529.073853,355.352417 1526.948853,349.693024 1521.016846,346.864197 
	C1517.016113,344.956329 1512.137207,344.113068 1507.650635,344.111084 
	C1232.001709,343.987366 956.352844,343.999420 680.703918,344.008453 
	C678.040283,344.008545 675.320740,343.815125 672.724121,344.267670 
	C666.313965,345.384827 661.234741,350.831665 660.137085,356.969910 
	C658.981812,363.430176 663.167786,367.192688 667.556274,369.985535 
	C670.339905,371.757050 674.474670,371.908722 678.006836,371.922516 
	C711.670837,372.054321 745.335510,372.001221 781.000000,372.001221 
M1115.000000,328.020050 
	C961.418762,328.222229 807.837524,328.424133 654.256348,328.647919 
	C653.972961,328.648346 653.613770,328.915955 653.428589,329.162781 
	C653.242432,329.410828 653.229614,329.789062 652.933411,330.860901 
	C656.136353,335.834839 661.595764,333.814117 666.059082,333.815826 
	C935.301270,333.917694 1204.543579,333.907684 1473.785767,333.899780 
	C1476.782104,333.899689 1479.857422,334.174805 1482.744873,333.584076 
	C1484.433594,333.238586 1485.822754,331.428986 1487.346802,330.278076 
	C1487.083008,329.525391 1486.819092,328.772736 1486.555298,328.020081 
	C1363.370239,328.020081 1240.185059,328.020081 1115.000000,328.020050 
M821.000000,396.017822 
	C799.008972,396.017822 777.016296,395.846100 755.027466,396.066162 
	C733.055725,396.286011 711.027100,395.104828 687.709717,396.866333 
	C691.935242,403.594879 697.014465,401.836334 701.245056,401.837616 
	C959.140198,401.915680 1217.035278,401.908173 1474.930420,401.899628 
	C1477.593140,401.899536 1480.358032,402.192902 1482.882202,401.568665 
	C1484.545166,401.157349 1485.861450,399.343872 1487.332886,398.158234 
	C1487.051025,397.444763 1486.769043,396.731323 1486.487183,396.017853 
	C1265.324829,396.017853 1044.162354,396.017853 821.000000,396.017822 
M135.664032,1135.105347 
	C133.735580,1131.723877 132.341888,1127.843140 129.757019,1125.074463 
	C125.576424,1120.596802 117.176193,1120.748535 112.520851,1124.623535 
	C107.421371,1128.868286 106.258614,1137.343384 109.910210,1143.651733 
	C112.988853,1148.970215 119.368790,1151.142456 125.427696,1149.148804 
	C131.566315,1147.128906 134.005295,1142.293701 135.664032,1135.105347 
M78.009048,1169.052002 
	C70.967400,1167.273926 66.432426,1171.342041 63.272720,1176.471680 
	C58.089310,1184.886353 64.141960,1195.487793 73.934410,1196.004639 
	C82.750557,1196.469971 87.228966,1193.343628 89.213486,1185.338257 
	C90.967216,1178.263916 88.043526,1173.559570 78.009048,1169.052002 
M325.875854,1133.529175 
	C324.310486,1131.066162 322.830780,1128.543579 321.163452,1126.151611 
	C316.435638,1119.369507 304.839264,1121.678955 300.929260,1126.646851 
	C296.277008,1132.557617 297.279938,1141.287842 303.263000,1146.130127 
	C310.100006,1151.663452 318.253021,1150.689575 323.018982,1143.370728 
	C324.574280,1140.982422 324.994324,1137.854858 325.875854,1133.529175 
M390.297699,1130.250732 
	C390.227325,1135.750854 388.261322,1141.591187 393.378387,1146.118042 
	C398.194000,1150.378174 404.650543,1151.114014 409.987396,1147.894287 
	C415.170929,1144.767090 417.786591,1136.594971 415.669739,1130.140869 
	C414.012207,1125.087158 408.583588,1122.055786 402.266327,1121.928833 
	C396.853180,1121.820068 393.697510,1124.809937 390.297699,1130.250732 
M280.993408,1185.798706 
	C280.302582,1182.012207 280.288483,1177.920776 278.754120,1174.514282 
	C276.716583,1169.990723 268.594940,1167.497559 264.016022,1169.107910 
	C256.693756,1171.683105 252.635590,1178.770264 254.103638,1186.418701 
	C255.171432,1191.981812 260.019470,1195.572632 266.264526,1196.069702 
	C273.340851,1196.632935 277.385925,1192.868896 280.993408,1185.798706 
M372.016266,1183.028320 
	C372.707123,1177.737915 369.919739,1174.184692 366.006989,1171.291382 
	C360.691742,1167.360962 353.541290,1167.890747 348.777954,1172.450684 
	C344.254456,1176.781006 343.491913,1184.439697 346.981934,1189.650513 
	C350.496765,1194.898315 355.377716,1196.959473 361.531677,1195.942627 
	C367.890991,1194.891724 371.413940,1191.096558 372.016266,1183.028320 
M569.567871,189.070023 
	C571.768616,187.189301 574.596008,185.697296 576.050110,183.353378 
	C580.060303,176.889435 577.561157,168.930389 570.994324,165.617050 
	C563.973633,162.074722 555.230774,165.902740 552.515015,173.708099 
	C550.440430,179.670654 554.564758,187.305725 561.248535,189.273804 
	C563.377380,189.900681 565.800842,189.527496 569.567871,189.070023 
M1069.592407,189.870178 
	C1071.833130,189.492172 1074.238525,189.511459 1076.284058,188.662979 
	C1082.891846,185.922211 1084.912476,181.912384 1083.931763,174.444031 
	C1083.261353,169.337997 1079.077759,165.312698 1073.353760,164.266159 
	C1068.227417,163.328934 1063.732422,165.774246 1060.413574,171.305817 
	C1057.323975,176.455322 1057.804932,180.198074 1062.640991,185.469589 
	C1064.156738,187.121750 1066.241577,188.251663 1069.592407,189.870178 
M1041.603882,131.812973 
	C1040.743408,130.039642 1040.021118,128.181808 1038.996826,126.508781 
	C1035.858521,121.382805 1030.755005,121.641426 1025.792969,122.141754 
	C1020.365540,122.689011 1018.172180,126.930717 1016.626221,131.379852 
	C1014.900818,136.345474 1016.675415,140.442810 1020.701294,143.574020 
	C1024.092041,146.211197 1027.536621,149.085678 1032.269043,146.724060 
	C1037.793701,143.967163 1042.552856,140.587860 1041.603882,131.812973 
M427.006561,130.228195 
	C427.307892,133.396179 426.913849,136.847672 428.064301,139.669479 
	C430.075653,144.603088 434.392761,147.832993 439.743591,147.378891 
	C444.910828,146.940399 449.009521,143.435379 451.178986,138.703659 
	C453.338562,133.993500 451.445343,129.519363 448.392548,125.753204 
	C443.118073,119.246201 433.877472,120.690392 427.006561,130.228195 
M784.535400,145.671265 
	C786.345703,143.773254 788.566101,142.122070 789.886108,139.928940 
	C793.262817,134.318817 791.236938,126.702271 785.844788,123.363029 
	C780.318298,119.940613 771.609802,121.929192 768.337280,127.536751 
	C765.882263,131.743454 764.396179,136.420853 767.932251,140.558746 
	C771.808533,145.094757 776.066406,149.843842 784.535400,145.671265 
M647.177979,186.117020 
	C651.803589,191.338409 657.086060,190.775635 662.480530,187.655869 
	C667.533630,184.733459 669.073669,180.553848 667.919556,173.858963 
	C667.121338,169.228439 662.987122,165.453125 657.625183,164.294800 
	C652.300659,163.144516 648.470642,165.549927 645.705200,169.648026 
	C642.267761,174.741821 641.461670,180.040604 647.177979,186.117020 
M827.704407,176.991959 
	C826.452271,174.336594 825.623352,171.352982 823.867004,169.088776 
	C819.036560,162.861694 811.032654,162.439957 805.722412,167.769577 
	C800.735718,172.774445 800.912048,181.881531 806.087036,186.606461 
	C811.363953,191.424438 818.770874,190.980179 823.565430,185.274811 
	C825.228455,183.295929 826.217896,180.750961 827.704407,176.991959 
M738.914368,189.921173 
	C741.965942,188.224503 745.637207,187.120407 747.942505,184.709991 
	C753.008057,179.413223 752.660583,174.571243 747.841370,168.909042 
	C743.313293,163.589005 737.770447,162.608551 732.003479,166.107452 
	C726.796692,169.266479 724.733032,175.794357 726.963501,181.728134 
	C728.788635,186.583649 732.493347,188.934326 738.914368,189.921173 
M976.057251,177.011475 
	C976.673523,179.210846 976.926392,181.604630 977.978333,183.570923 
	C980.516663,188.315475 986.584656,190.902496 991.424988,189.703995 
	C995.799744,188.620789 1001.507507,181.698196 1001.668030,177.280701 
	C1001.805176,173.509415 996.888367,166.505676 992.892395,164.780273 
	C988.517090,162.891068 981.774902,164.767105 978.747070,169.102509 
	C977.467102,170.935272 976.969727,173.314621 976.057251,177.011475 
M610.223572,146.835144 
	C613.030396,145.236572 616.415894,144.179428 618.523682,141.926773 
	C622.916504,137.232224 622.756958,131.152496 618.958801,126.526108 
	C615.761414,122.631477 608.162964,120.725235 603.443176,122.633675 
	C598.303711,124.711792 594.821838,130.806793 596.194275,136.445251 
	C597.761902,142.885666 602.318359,146.357559 610.223572,146.835144 
M475.401367,188.171371 
	C477.915527,188.717636 480.500336,189.937759 482.930511,189.682999 
	C490.038788,188.937820 494.029236,184.029587 494.003235,176.923569 
	C493.978729,170.226181 490.137299,165.504303 483.765839,164.339722 
	C477.857849,163.259857 472.006592,167.695389 469.615723,174.190979 
	C467.435608,180.113846 470.776581,183.554031 475.401367,188.171371 
M511.003937,130.243896 
	C508.869446,135.270645 511.054504,139.338486 514.175293,142.945328 
	C518.533386,147.982254 523.861938,148.682571 529.148010,145.295334 
	C535.736389,141.073608 537.525269,135.778320 534.557312,129.283371 
	C530.001892,119.314560 520.005615,119.127831 511.003937,130.243896 
M953.895508,131.595108 
	C952.317322,129.171799 951.138672,126.313759 949.075867,124.417770 
	C945.058044,120.724998 936.935303,121.264389 932.604126,124.986496 
	C928.353699,128.639114 927.472839,136.311371 930.745728,141.171722 
	C933.413452,145.133286 939.501465,147.919601 943.508484,147.012711 
	C948.983398,145.773605 952.912109,140.572784 953.895508,131.595108 
M908.135620,184.610123 
	C910.971252,179.588287 911.238159,174.355743 908.130859,169.554352 
	C904.538269,164.002914 897.036865,162.837662 891.356506,166.394119 
	C886.237427,169.599152 884.125488,177.479721 886.867981,183.142426 
	C889.722656,189.036789 895.461975,191.297791 901.973755,188.853577 
	C903.794556,188.170120 905.365417,186.820969 908.135620,184.610123 
M858.174927,146.843430 
	C867.189758,143.349182 869.069397,140.559845 867.965393,132.315170 
	C867.183411,126.475952 862.439636,122.214371 856.503906,122.019012 
	C850.025940,121.805809 844.880005,126.053543 844.036133,132.310440 
	C842.797607,141.494522 845.304626,144.448578 858.174927,146.843430 
M686.950989,126.111084 
	C683.545105,129.191986 683.567139,133.219101 684.246094,137.198135 
	C685.458984,144.306610 689.478210,146.719223 698.293213,146.023712 
	C705.320129,145.469284 707.998535,142.433182 708.030884,134.985443 
	C708.081604,123.307953 699.281494,118.891525 686.950989,126.111084 
M1109.605347,122.086441 
	C1107.397827,123.397438 1104.817627,124.335373 1103.056763,126.093613 
	C1098.823608,130.320374 1098.727173,139.297943 1102.492065,143.226364 
	C1106.588013,147.500198 1115.662109,147.066681 1120.433960,142.653137 
	C1124.374756,139.008163 1125.049194,134.395142 1123.429688,129.989883 
	C1121.500854,124.742805 1117.379517,121.441231 1109.605347,122.086441 
M2865.428467,542.931702 
	C2871.026855,539.462341 2870.586914,533.943665 2869.652100,528.741821 
	C2868.598877,522.877441 2860.498047,518.901123 2854.708008,520.836731 
	C2848.199219,523.012634 2844.754395,529.661133 2846.974365,535.763428 
	C2849.495605,542.694641 2852.924316,544.280823 2865.428467,542.931702 
M2729.652344,480.115143 
	C2727.148193,482.039001 2723.983398,483.506714 2722.275635,485.980347 
	C2718.575928,491.338562 2720.531250,498.875763 2725.868652,502.441498 
	C2730.886963,505.794067 2738.677002,503.887299 2742.320557,498.414612 
	C2747.735107,490.281708 2742.567871,481.723297 2729.652344,480.115143 
M2813.210205,503.967255 
	C2815.427490,503.526337 2817.923340,503.587219 2819.804932,502.541962 
	C2823.961670,500.232574 2826.528564,493.997528 2825.609375,489.821838 
	C2824.480957,484.695740 2820.383545,480.656555 2815.729736,480.082184 
	C2810.511963,479.438202 2805.791748,481.763397 2803.240967,486.234436 
	C2799.325684,493.096130 2802.212158,499.170990 2813.210205,503.967255 
M2778.996338,542.361023 
	C2780.421143,540.587524 2782.378662,539.022461 2783.169678,537.001038 
	C2785.437988,531.202576 2783.809326,526.012939 2779.264404,522.834412 
	C2774.478516,519.487427 2769.801758,519.373291 2765.314697,522.494080 
	C2761.428711,525.196838 2759.106201,531.429260 2760.368652,535.767883 
	C2761.724365,540.427124 2766.880859,543.941467 2772.697510,543.953552 
	C2774.322266,543.956970 2775.947754,543.403564 2778.996338,542.361023 
M2983.673828,500.869293 
	C2984.613037,499.516174 2985.814697,498.274414 2986.443848,496.789886 
	C2988.679688,491.514801 2987.365234,486.091736 2983.180176,482.418030 
	C2979.985840,479.614014 2973.929932,479.111298 2970.106445,481.332550 
	C2965.569580,483.968170 2963.309570,488.696411 2964.051025,494.002014 
	C2965.243164,502.533783 2972.235352,505.480743 2983.673828,500.869293 
M2686.533936,542.926758 
	C2689.793457,543.256165 2693.081299,544.021484 2696.306152,543.814148 
	C2701.335205,543.491028 2703.655273,539.549011 2705.065674,535.370544 
	C2706.827637,530.150879 2703.411621,526.636414 2700.199463,523.215515 
	C2697.064697,519.876953 2693.534912,519.434692 2689.368164,521.337036 
	C2680.971680,525.170654 2679.461670,532.348816 2686.533936,542.926758 
M2648.385010,503.093689 
	C2650.000977,503.375214 2651.644531,504.000977 2653.228027,503.874878 
	C2658.333008,503.468292 2662.799561,499.579468 2663.830566,494.981720 
	C2664.970947,489.897766 2663.062744,484.975372 2658.771729,481.930634 
	C2654.848389,479.146851 2649.180420,479.483826 2644.903320,482.754944 
	C2637.986816,488.044678 2638.778320,495.504883 2648.385010,503.093689 
M2891.045410,481.587738 
	C2889.091553,483.704315 2886.655762,485.551605 2885.289062,487.996368 
	C2882.846191,492.365570 2885.499756,496.393707 2887.656494,499.931427 
	C2889.723877,503.322845 2896.652588,505.082794 2900.248535,503.425354 
	C2904.242432,501.584412 2907.364990,498.756470 2907.973145,493.931274 
	C2909.121094,484.824402 2902.998779,479.660187 2891.045410,481.587738 
M2930.039062,523.273560 
	C2926.347656,525.883911 2925.764648,529.648438 2925.978027,533.804688 
	C2926.345947,540.969421 2929.197266,543.796753 2936.470703,543.994263 
	C2943.545166,544.186462 2949.965088,539.504944 2949.340332,533.425842 
	C2948.979248,529.908569 2946.503418,526.092163 2943.918457,523.446716 
	C2940.443604,519.889954 2935.809082,519.272156 2930.039062,523.273560 
M171.061859,1182.035767 
	C167.426590,1185.943481 163.791321,1189.851196 159.627747,1194.326782 
	C171.396774,1196.975098 174.799759,1195.968506 179.140320,1189.426392 
	C182.623001,1184.177246 182.492416,1181.941895 177.984955,1176.255249 
	C176.016479,1177.845825 174.048965,1179.435669 171.061859,1182.035767 
M229.788345,1137.053711 
	C229.207825,1135.037354 228.627304,1133.020874 227.754395,1129.988892 
	C221.121140,1136.293335 212.598129,1138.879639 210.193192,1147.804688 
	C219.834946,1151.258911 223.921036,1149.191040 229.788345,1137.053711 
z"/>
<path fill="#DDE3F9" opacity="1.000000" stroke="none" 
	d="
M1262.000000,2002.000000 
	C936.616821,2002.000000 611.233704,2002.000000 284.836792,2001.296875 
	C273.816101,1982.974854 264.208160,1965.114014 253.706833,1947.794800 
	C238.745102,1923.119629 231.841476,1896.969727 235.863434,1868.071411 
	C238.233047,1851.045288 243.122833,1835.140015 252.278992,1820.448608 
	C263.641357,1802.217163 279.780945,1788.108154 293.366364,1771.803955 
	C302.076752,1761.350342 311.870026,1751.802856 321.094482,1741.772583 
	C327.614044,1734.683594 334.035370,1727.503174 340.427429,1720.298584 
	C355.184845,1703.665161 369.832581,1686.933838 384.654968,1670.358765 
	C392.849670,1661.194824 401.331879,1652.288574 409.637573,1643.223267 
	C416.593597,1635.631104 423.533569,1628.022827 430.389008,1620.339966 
	C445.858215,1603.003784 461.214478,1585.566650 476.729034,1568.271240 
	C484.938263,1559.119629 493.519653,1550.301025 501.690887,1541.116699 
	C515.808472,1525.248901 529.582275,1509.073730 543.787170,1493.285645 
	C559.119446,1476.244385 574.794067,1459.511230 590.292786,1442.619385 
	C597.704529,1434.541382 605.185608,1426.521118 612.399780,1418.268799 
	C620.985107,1408.447998 630.819946,1400.180908 642.224487,1393.914917 
	C663.363342,1382.300537 685.787048,1377.404419 710.070312,1379.712158 
	C723.840454,1381.020996 736.870605,1383.793945 749.382568,1389.615845 
	C762.344238,1395.647217 775.453918,1401.362915 788.538696,1407.126343 
	C815.307861,1418.917236 842.141907,1430.561279 868.876404,1442.430054 
	C890.150513,1451.874390 911.268127,1461.671021 932.542419,1471.115112 
	C959.276550,1482.982910 986.137939,1494.564209 1012.871887,1506.432373 
	C1034.145630,1515.876831 1055.286621,1525.619873 1076.529907,1535.133423 
	C1100.195190,1545.731445 1123.893555,1556.255737 1147.607300,1566.744629 
	C1168.581055,1576.021729 1189.666992,1585.047974 1210.571045,1594.478271 
	C1228.821777,1602.711670 1246.517944,1611.752563 1260.255859,1627.099243 
	C1279.819824,1648.954224 1292.099731,1673.919312 1291.797974,1703.555420 
	C1291.596069,1723.405396 1289.256470,1743.237183 1287.759644,1763.068481 
	C1287.236572,1770.000366 1286.459961,1776.916626 1285.647949,1783.822388 
	C1283.832153,1799.266602 1281.735840,1814.679932 1280.101562,1830.142700 
	C1278.465210,1845.624146 1277.309692,1861.155762 1275.828491,1876.654541 
	C1275.104492,1884.231323 1274.127197,1891.784180 1273.249878,1899.346069 
	C1272.182251,1908.549927 1270.996826,1917.741577 1270.051636,1926.957886 
	C1269.138916,1935.858643 1268.630859,1944.801880 1267.653931,1953.694580 
	C1265.883423,1969.808838 1263.896484,1985.899536 1262.000000,2002.000000 
z"/>
<path fill="#E5ECFF" opacity="1.000000" stroke="none" 
	d="
M2526.000000,2002.000000 
	C2238.620117,2002.000000 1951.240112,2002.000000 1662.930054,2001.062744 
	C1662.000000,1868.516968 1661.998901,1736.908569 1662.007080,1605.300171 
	C1662.007202,1601.970581 1661.693848,1598.571289 1662.233643,1595.322021 
	C1668.014771,1560.519531 1685.930176,1534.351440 1718.151123,1519.127930 
	C1727.081787,1514.908447 1736.967773,1512.705200 1746.426758,1509.611450 
	C1772.336304,1501.138062 1798.239380,1492.644409 1824.167603,1484.228516 
	C1876.341431,1467.293213 1928.538208,1450.428467 1980.710205,1433.487305 
	C2008.535278,1424.451904 2036.329590,1415.321777 2064.135498,1406.227661 
	C2105.852051,1392.584106 2147.575684,1378.962036 2189.277344,1365.273560 
	C2206.795410,1359.523193 2224.280029,1355.834839 2243.004395,1359.770386 
	C2260.708984,1363.491577 2276.317871,1370.455200 2289.765137,1382.638672 
	C2302.238281,1393.939453 2310.989014,1408.118652 2320.802246,1421.468506 
	C2338.885010,1446.068604 2356.688232,1470.874146 2374.627441,1495.579834 
	C2392.369385,1520.013550 2410.137451,1544.428345 2427.890381,1568.854004 
	C2445.644531,1593.281616 2463.383789,1617.720093 2481.148438,1642.140259 
	C2500.276855,1668.435547 2519.455078,1694.695068 2538.560059,1721.007568 
	C2556.499512,1745.715210 2573.924316,1770.812866 2592.428223,1795.089111 
	C2605.298096,1811.974487 2611.165039,1830.917725 2611.820557,1851.500000 
	C2612.521484,1873.506226 2604.797852,1893.188965 2591.991943,1910.907593 
	C2570.028564,1941.296021 2548.000732,1971.638306 2526.000000,2002.000000 
z"/>
<path fill="#E5ECFF" opacity="1.000000" stroke="none" 
	d="
M3002.000000,1614.000000 
	C3002.000000,1671.375122 3002.000000,1728.750244 3001.143555,1787.060547 
	C2998.634521,1787.992432 2996.979004,1787.928711 2995.329102,1787.996338 
	C2987.158936,1788.330811 2982.222656,1793.064819 2982.047119,1800.689209 
	C2981.873047,1808.248779 2986.718994,1813.248779 2995.060303,1813.955566 
	C2997.358154,1814.150269 2999.686035,1813.994873 3002.000000,1814.000000 
	C3002.000000,1876.582275 3002.000000,1939.164429 3002.000000,2002.000000 
	C2848.625000,2002.000000 2695.249756,2002.000000 2540.929199,2001.248291 
	C2542.723877,1986.763306 2554.362793,1978.690918 2561.086670,1967.476685 
	C2564.806641,1961.272583 2569.834717,1955.859131 2573.638916,1949.697632 
	C2579.516113,1940.179688 2584.721436,1930.249878 2590.449951,1920.636841 
	C2595.873047,1911.536865 2602.364990,1902.997070 2607.046387,1893.546875 
	C2618.166748,1871.098633 2618.676025,1847.583740 2612.198730,1823.650391 
	C2607.919678,1807.839722 2598.225342,1795.108887 2589.034912,1782.070435 
	C2586.064697,1777.856445 2583.028320,1773.689209 2580.097900,1769.606201 
	C2589.664307,1761.269775 2592.682861,1752.055054 2588.452393,1745.809082 
	C2583.821777,1738.972412 2576.479492,1738.827637 2562.640381,1745.812500 
	C2535.705566,1708.800903 2508.667725,1671.647583 2480.822998,1633.385498 
	C2487.441162,1628.298584 2493.039795,1623.795288 2498.842529,1619.571655 
	C2518.968994,1604.921143 2539.176025,1590.381348 2559.334229,1575.774048 
	C2582.176025,1559.222290 2605.003906,1542.651733 2627.826660,1526.073853 
	C2648.769531,1510.861572 2669.816162,1495.788940 2690.599121,1480.361450 
	C2713.420410,1463.420654 2739.254639,1457.679565 2766.914795,1460.374756 
	C2789.370117,1462.562866 2808.271240,1473.545166 2826.109863,1486.934204 
	C2853.179932,1507.252441 2880.724854,1526.938599 2908.104004,1546.843872 
	C2929.576660,1562.454956 2951.063232,1578.047119 2972.624023,1593.535889 
	C2982.315186,1600.497803 2992.201904,1607.187012 3002.000000,1614.000000 
M2755.125244,1743.902588 
	C2754.121094,1745.218384 2752.893311,1746.419678 2752.151855,1747.869873 
	C2749.088623,1753.860229 2749.837158,1758.561768 2754.404297,1763.272339 
	C2758.323730,1767.314819 2764.793945,1769.074585 2768.970947,1767.234009 
	C2774.230469,1764.916382 2778.299072,1758.457886 2777.980225,1752.931519 
	C2777.327637,1741.620483 2767.484863,1737.036865 2755.125244,1743.902588 
M2839.896240,1762.880859 
	C2841.206299,1763.882690 2842.402100,1765.106689 2843.845947,1765.847290 
	C2849.836914,1768.919678 2854.476074,1768.200317 2859.209717,1763.665527 
	C2863.583984,1759.475098 2864.800537,1754.299072 2862.585205,1749.302856 
	C2859.713867,1742.826538 2854.977783,1739.635620 2848.821045,1740.029419 
	C2837.570068,1740.748901 2833.040283,1750.575317 2839.896240,1762.880859 
M2933.943359,1745.040894 
	C2928.871094,1752.130005 2928.557129,1756.813354 2932.821777,1761.780273 
	C2937.402832,1767.116089 2943.254639,1768.917847 2948.518799,1766.680664 
	C2953.834473,1764.421753 2956.907959,1760.312134 2957.790771,1754.766357 
	C2958.475830,1750.463989 2953.962646,1742.960938 2949.422852,1741.075928 
	C2944.183838,1738.900757 2939.102295,1739.292236 2933.943359,1745.040894 
M2682.837158,1743.955444 
	C2681.142578,1742.954102 2679.555664,1741.647827 2677.734863,1741.005005 
	C2670.281982,1738.373413 2663.404297,1741.517822 2660.833740,1748.532715 
	C2657.971924,1756.343750 2662.181885,1764.393311 2670.591309,1767.187622 
	C2676.873047,1769.274902 2683.171875,1765.550781 2686.180908,1758.639160 
	C2688.464844,1753.392944 2687.485352,1749.096924 2682.837158,1743.955444 
M2888.777832,1788.870361 
	C2886.670166,1791.769409 2883.750732,1794.385010 2882.619141,1797.625000 
	C2880.075195,1804.910278 2885.283691,1812.489014 2893.042969,1813.846313 
	C2901.609375,1815.344971 2909.003906,1810.339722 2909.893555,1802.441040 
	C2910.769775,1794.659424 2905.262695,1788.309448 2897.265869,1788.017578 
	C2894.948242,1787.932983 2892.618164,1788.184448 2888.777832,1788.870361 
M2817.097900,1805.616943 
	C2818.696045,1792.606201 2813.783447,1787.035889 2801.560303,1788.000610 
	C2795.568604,1788.473511 2791.379150,1792.407471 2790.229004,1798.640381 
	C2789.234619,1804.028442 2791.806641,1809.586792 2796.496826,1812.186646 
	C2803.508789,1816.073486 2810.282471,1814.323853 2817.097900,1805.616943 
M2733.654053,1804.129272 
	C2733.527588,1791.506348 2729.424072,1787.282593 2717.980713,1787.996948 
	C2711.484863,1788.402466 2707.056396,1792.600464 2706.143799,1799.217651 
	C2705.345459,1805.005249 2708.547607,1810.625488 2713.928467,1812.880737 
	C2721.558105,1816.078613 2727.877930,1813.682495 2733.654053,1804.129272 
M2635.363037,1788.919434 
	C2633.078857,1788.609985 2630.788818,1788.001465 2628.511230,1788.044556 
	C2620.218506,1788.201294 2615.875000,1792.913696 2615.995361,1801.328369 
	C2616.113281,1809.565918 2620.793945,1814.064331 2629.180420,1814.000488 
	C2637.439453,1813.937622 2641.799072,1809.280273 2642.088623,1800.972412 
	C2642.258057,1796.105347 2640.309326,1792.673950 2635.363037,1788.919434 
z"/>
<path fill="#E5EBFF" opacity="1.000000" stroke="none" 
	d="
M218.000000,2002.000000 
	C146.090607,2002.000000 74.181221,2002.000000 2.000000,2002.000000 
	C2.000000,1842.625000 2.000000,1683.249756 2.743476,1522.841309 
	C10.393865,1519.479248 17.323168,1517.214600 24.203627,1514.810303 
	C47.734444,1506.587524 71.211418,1498.209106 94.779160,1490.093994 
	C116.133484,1482.740845 137.614380,1475.755615 158.975540,1468.422119 
	C181.271317,1460.767822 203.387177,1452.576294 225.777771,1445.216064 
	C242.400620,1439.751831 259.488281,1439.054688 276.751465,1442.536011 
	C305.238251,1448.280884 327.126312,1463.948608 344.435272,1486.760254 
	C362.275421,1510.271973 380.273438,1533.664307 398.046417,1557.226440 
	C403.624878,1564.622070 408.698792,1572.398071 413.607513,1580.534180 
	C409.150055,1585.370483 405.047852,1589.634888 401.034760,1593.981567 
	C386.860687,1609.333862 372.556335,1624.570312 358.605377,1640.123413 
	C343.608368,1656.842896 329.022125,1673.930298 314.120880,1690.736816 
	C306.863739,1698.921753 299.394531,1706.925049 291.846222,1714.843750 
	C282.957031,1724.168701 273.552734,1733.021606 264.965790,1742.611084 
	C254.813858,1753.948486 245.200302,1765.775269 235.534744,1777.538940 
	C227.567535,1787.235596 219.150833,1796.672119 212.196762,1807.068970 
	C198.642105,1827.334106 188.227066,1848.887939 185.442856,1873.800781 
	C183.357422,1892.461182 183.053574,1910.831787 187.493073,1929.046631 
	C192.875778,1951.131592 203.103058,1971.227539 213.945953,1991.042236 
	C215.795456,1994.422241 216.673279,1998.333984 218.000000,2002.000000 
z"/>
<path fill="#E5EBFF" opacity="1.000000" stroke="none" 
	d="
M1602.000000,2002.000000 
	C1491.291504,2002.000000 1380.583130,2002.000000 1268.931396,2001.101562 
	C1269.462769,1983.380981 1270.774658,1966.542603 1272.458252,1949.741455 
	C1274.106567,1933.292358 1276.178833,1916.886108 1277.976685,1900.451416 
	C1278.984497,1891.239014 1279.731689,1881.998047 1280.746704,1872.786499 
	C1281.724487,1863.913086 1283.069214,1855.078247 1283.944214,1846.195923 
	C1285.501953,1830.381714 1286.609253,1814.521240 1288.302002,1798.722534 
	C1290.662231,1776.692993 1293.408936,1754.704834 1295.942749,1732.693604 
	C1296.699707,1726.119751 1298.054810,1719.497192 1297.791992,1712.950806 
	C1297.395020,1703.065552 1296.131226,1693.178833 1294.608643,1683.390503 
	C1293.870239,1678.643799 1294.024048,1675.182983 1298.452881,1672.247559 
	C1305.358521,1667.670166 1311.906006,1662.552979 1318.610107,1657.671387 
	C1344.092896,1639.116211 1369.471558,1620.415527 1395.106201,1602.072876 
	C1407.733398,1593.037598 1419.658447,1583.056396 1434.684448,1577.498169 
	C1468.187866,1565.105103 1500.118042,1567.869141 1529.959351,1587.025146 
	C1549.200317,1599.376465 1567.333374,1613.463501 1585.847412,1626.931763 
	C1591.434082,1630.995850 1596.633179,1635.593262 1602.007812,1640.889160 
	C1602.003906,1761.888062 1602.001953,1881.943970 1602.000000,2002.000000 
z"/>
<path fill="#D2D7EB" opacity="1.000000" stroke="none" 
	d="
M3002.000000,1397.064087 
	C2817.685303,1398.000000 2633.370850,1398.000244 2449.056152,1397.997314 
	C2446.056885,1397.997314 2443.011963,1398.281006 2440.068115,1397.866577 
	C2434.529053,1397.086548 2429.947998,1394.774170 2427.952393,1388.932861 
	C2426.879395,1385.792480 2425.331543,1382.816528 2424.204834,1379.691650 
	C2419.168701,1365.722900 2427.202393,1354.099365 2442.182373,1354.037964 
	C2472.845459,1353.912354 2503.509033,1354.000000 2534.172607,1354.000000 
	C2689.490234,1354.000000 2844.807861,1354.000000 3001.062744,1354.000000 
	C3002.000000,1354.888916 3002.000000,1355.777832 3001.062744,1357.333496 
	C2819.613281,1358.161987 2639.101074,1358.322998 2458.588623,1358.545410 
	C2458.242188,1358.545898 2457.896729,1359.457031 2457.550781,1359.945435 
	C2457.863281,1360.451782 2458.175537,1361.396851 2458.488525,1361.397217 
	C2639.658936,1361.640381 2820.829590,1361.819824 3002.000000,1362.000000 
	C3002.000000,1373.376099 3002.000000,1384.752075 3002.000000,1397.064087 
z"/>
<path fill="#D2D7EB" opacity="1.000000" stroke="none" 
	d="
M3002.000000,1339.063477 
	C2817.742920,1340.000000 2633.486084,1339.987915 2449.229004,1340.039917 
	C2441.008301,1340.042236 2433.427979,1339.172729 2427.429932,1332.538696 
	C2422.732910,1327.343750 2420.596436,1322.049194 2423.891113,1315.350708 
	C2426.952881,1309.126465 2430.661865,1304.150269 2438.601562,1303.933838 
	C2455.185303,1303.482178 2471.758789,1302.101074 2488.337158,1302.087280 
	C2658.933350,1301.945068 2829.529297,1302.000000 3001.062744,1302.000000 
	C3002.000000,1314.042358 3002.000000,1326.084595 3002.000000,1339.063477 
z"/>
<path fill="#D7DEF1" opacity="1.000000" stroke="none" 
	d="
M218.937317,2002.000000 
	C216.673279,1998.333984 215.795456,1994.422241 213.945953,1991.042236 
	C203.103058,1971.227539 192.875778,1951.131592 187.493073,1929.046631 
	C183.053574,1910.831787 183.357422,1892.461182 185.442856,1873.800781 
	C188.227066,1848.887939 198.642105,1827.334106 212.196762,1807.068970 
	C219.150833,1796.672119 227.567535,1787.235596 235.534744,1777.538940 
	C245.200302,1765.775269 254.813858,1753.948486 264.965790,1742.611084 
	C273.552734,1733.021606 282.957031,1724.168701 291.846222,1714.843750 
	C299.394531,1706.925049 306.863739,1698.921753 314.120880,1690.736816 
	C329.022125,1673.930298 343.608368,1656.842896 358.605377,1640.123413 
	C372.556335,1624.570312 386.860687,1609.333862 401.034760,1593.981567 
	C405.047852,1589.634888 409.150055,1585.370483 414.279663,1580.552734 
	C416.244232,1580.027466 417.140533,1580.018066 418.014221,1580.002319 
	C417.991577,1579.995972 417.987762,1579.952271 417.973572,1580.653809 
	C419.293518,1583.595215 420.627686,1585.835205 422.247986,1588.691650 
	C426.366333,1595.538086 430.198578,1601.768311 433.720612,1608.587891 
	C421.632599,1621.822388 409.695160,1634.323242 398.116455,1647.147949 
	C382.776062,1664.138794 367.770874,1681.431885 352.512939,1698.497925 
	C344.545288,1707.409912 336.268127,1716.044922 328.264862,1724.925659 
	C311.158051,1743.907959 293.889496,1762.753540 277.174591,1782.076660 
	C266.780975,1794.091919 255.548874,1805.383057 247.136871,1819.156738 
	C237.553635,1834.848022 232.034607,1851.824951 230.291107,1869.734375 
	C227.860535,1894.701416 232.173782,1918.780640 244.513565,1940.992798 
	C251.613235,1953.772705 259.035126,1966.373657 266.118683,1979.162354 
	C270.275177,1986.666260 274.052246,1994.380371 278.000000,2002.000000 
	C258.624878,2002.000000 239.249756,2002.000000 218.937317,2002.000000 
z"/>
<path fill="#FAFBFD" opacity="1.000000" stroke="none" 
	d="
M3002.000000,1613.200073 
	C2992.201904,1607.187012 2982.315186,1600.497803 2972.624023,1593.535889 
	C2951.063232,1578.047119 2929.576660,1562.454956 2908.104004,1546.843872 
	C2880.724854,1526.938599 2853.179932,1507.252441 2826.109863,1486.934204 
	C2808.271240,1473.545166 2789.370117,1462.562866 2766.914795,1460.374756 
	C2739.254639,1457.679565 2713.420410,1463.420654 2690.599121,1480.361450 
	C2669.816162,1495.788940 2648.769531,1510.861572 2627.826660,1526.073853 
	C2605.003906,1542.651733 2582.176025,1559.222290 2559.334229,1575.774048 
	C2539.176025,1590.381348 2518.968994,1604.921143 2498.842529,1619.571655 
	C2493.039795,1623.795288 2487.441162,1628.298584 2480.822998,1633.385498 
	C2508.667725,1671.647583 2535.705566,1708.800903 2562.640381,1745.812500 
	C2576.479492,1738.827637 2583.821777,1738.972412 2588.452393,1745.809082 
	C2592.682861,1752.055054 2589.664307,1761.269775 2580.097900,1769.606201 
	C2583.028320,1773.689209 2586.064697,1777.856445 2589.034912,1782.070435 
	C2598.225342,1795.108887 2607.919678,1807.839722 2612.198730,1823.650391 
	C2618.676025,1847.583740 2618.166748,1871.098633 2607.046387,1893.546875 
	C2602.364990,1902.997070 2595.873047,1911.536865 2590.449951,1920.636841 
	C2584.721436,1930.249878 2579.516113,1940.179688 2573.638916,1949.697632 
	C2569.834717,1955.859131 2564.806641,1961.272583 2561.086670,1967.476685 
	C2554.362793,1978.690918 2542.723877,1986.763306 2539.991943,2001.248291 
	C2535.916748,2002.000000 2531.833252,2002.000000 2526.875000,2002.000000 
	C2548.000732,1971.638306 2570.028564,1941.296021 2591.991943,1910.907593 
	C2604.797852,1893.188965 2612.521484,1873.506226 2611.820557,1851.500000 
	C2611.165039,1830.917725 2605.298096,1811.974487 2592.428223,1795.089111 
	C2573.924316,1770.812866 2556.499512,1745.715210 2538.560059,1721.007568 
	C2519.455078,1694.695068 2500.276855,1668.435547 2481.148438,1642.140259 
	C2463.383789,1617.720093 2445.644531,1593.281616 2427.890381,1568.854004 
	C2410.137451,1544.428345 2392.369385,1520.013550 2374.627441,1495.579834 
	C2356.688232,1470.874146 2338.885010,1446.068604 2320.802246,1421.468506 
	C2310.989014,1408.118652 2302.238281,1393.939453 2289.765137,1382.638672 
	C2276.317871,1370.455200 2260.708984,1363.491577 2243.004395,1359.770386 
	C2224.280029,1355.834839 2206.795410,1359.523193 2189.277344,1365.273560 
	C2147.575684,1378.962036 2105.852051,1392.584106 2064.135498,1406.227661 
	C2036.329590,1415.321777 2008.535278,1424.451904 1980.710205,1433.487305 
	C1928.538208,1450.428467 1876.341431,1467.293213 1824.167603,1484.228516 
	C1798.239380,1492.644409 1772.336304,1501.138062 1746.426758,1509.611450 
	C1736.967773,1512.705200 1727.081787,1514.908447 1718.151123,1519.127930 
	C1685.930176,1534.351440 1668.014771,1560.519531 1662.233643,1595.322021 
	C1661.693848,1598.571289 1662.007202,1601.970581 1662.007080,1605.300171 
	C1661.998901,1736.908569 1662.000000,1868.516968 1662.000000,2001.062744 
	C1661.111084,2002.000000 1660.222168,2002.000000 1658.661865,2001.062744 
	C1657.988770,1973.868042 1657.996094,1947.610596 1657.983643,1921.353271 
	C1657.944824,1839.590332 1657.898560,1757.827515 1657.904785,1675.392822 
	C1657.966309,1673.825562 1657.978271,1672.929810 1658.004883,1671.094849 
	C1658.017090,1649.179321 1657.822632,1628.200562 1658.110352,1607.228394 
	C1658.218872,1599.308716 1658.349609,1591.116577 1660.344727,1583.542358 
	C1669.366333,1549.294067 1689.148926,1523.668335 1723.455444,1512.076782 
	C1776.265869,1494.233032 1829.415283,1477.391602 1882.435669,1460.170654 
	C1934.210205,1443.354492 1986.005737,1426.602661 2037.787720,1409.809326 
	C2087.042236,1393.835571 2136.483887,1378.406738 2185.454834,1361.606323 
	C2207.507324,1354.041016 2229.328369,1351.889160 2252.020508,1356.056152 
	C2263.895264,1360.361450 2275.385254,1365.156738 2285.852783,1372.649536 
	C2298.625244,1381.791992 2307.223877,1394.284790 2316.221191,1406.579834 
	C2336.789551,1434.687134 2357.335693,1462.810669 2377.802002,1490.992310 
	C2398.854736,1519.981812 2419.796875,1549.051514 2440.801025,1578.076050 
	C2442.939209,1581.030518 2445.171875,1583.916748 2447.986816,1588.023926 
	C2457.012695,1600.727417 2465.343994,1612.292603 2473.842041,1623.734009 
	C2477.859619,1629.142944 2478.433594,1629.111328 2484.108154,1624.928955 
	C2494.789062,1617.056885 2505.380859,1609.062378 2516.117920,1601.267456 
	C2572.762207,1560.144653 2629.619385,1519.311523 2685.979736,1477.803711 
	C2699.961182,1467.506836 2714.829590,1460.352295 2731.701416,1457.257080 
	C2739.478027,1455.830322 2747.401367,1454.744141 2755.287842,1454.512207 
	C2762.185059,1454.309326 2769.123779,1455.519165 2776.044189,1456.104858 
	C2792.093018,1461.535522 2807.781494,1467.540039 2821.636230,1477.783325 
	C2855.172852,1502.578735 2888.932861,1527.072754 2922.654297,1551.618042 
	C2947.012451,1569.348267 2971.438965,1586.984741 2995.895264,1604.579102 
	C2997.146973,1605.479492 2998.969971,1605.586060 3001.263428,1606.031006 
	C3002.000000,1608.133423 3002.000000,1610.266724 3002.000000,1613.200073 
z"/>
<path fill="#FAFBFD" opacity="1.000000" stroke="none" 
	d="
M278.750000,2002.000000 
	C274.052246,1994.380371 270.275177,1986.666260 266.118683,1979.162354 
	C259.035126,1966.373657 251.613235,1953.772705 244.513565,1940.992798 
	C232.173782,1918.780640 227.860535,1894.701416 230.291107,1869.734375 
	C232.034607,1851.824951 237.553635,1834.848022 247.136871,1819.156738 
	C255.548874,1805.383057 266.780975,1794.091919 277.174591,1782.076660 
	C293.889496,1762.753540 311.158051,1743.907959 328.264862,1724.925659 
	C336.268127,1716.044922 344.545288,1707.409912 352.512939,1698.497925 
	C367.770874,1681.431885 382.776062,1664.138794 398.116455,1647.147949 
	C409.695160,1634.323242 421.632599,1621.822388 434.270752,1608.303711 
	C436.122375,1605.726318 437.113647,1604.022583 438.689209,1601.979736 
	C444.206116,1596.692993 449.373962,1591.956055 454.027710,1586.758789 
	C468.411804,1570.694824 482.472870,1554.340698 496.899261,1538.315308 
	C512.227051,1521.288330 527.848999,1504.526489 543.302002,1487.611816 
	C549.794617,1480.505005 556.162354,1473.284180 562.622498,1466.147339 
	C580.885071,1445.971680 598.770325,1425.433350 617.591858,1405.792847 
	C628.453369,1394.458740 642.067993,1386.772339 657.025635,1381.366333 
	C677.504883,1373.964722 698.573059,1373.272461 719.912354,1374.282593 
	C721.081299,1374.846436 722.208252,1375.530396 723.425537,1375.955933 
	C736.879761,1380.660522 750.702515,1384.505737 763.747375,1390.150757 
	C805.548096,1408.239746 847.091125,1426.926147 888.677185,1445.508301 
	C916.911438,1458.124268 944.995361,1471.077026 973.247498,1483.652344 
	C1006.047913,1498.251953 1038.996338,1512.518799 1071.810181,1527.088623 
	C1098.858398,1539.098267 1125.768799,1551.418579 1152.806519,1563.452271 
	C1173.760376,1572.778320 1194.796265,1581.921509 1215.833130,1591.059814 
	C1238.124146,1600.742920 1257.891357,1613.767822 1273.404053,1634.498291 
	C1280.179077,1646.787598 1286.238647,1658.054199 1292.552979,1669.794312 
	C1293.391235,1669.542480 1294.812622,1669.474487 1295.773438,1668.774536 
	C1321.238892,1650.221436 1346.684937,1631.641479 1372.071289,1612.980225 
	C1385.427612,1603.161987 1398.173340,1592.417236 1412.084351,1583.474609 
	C1428.426880,1572.969116 1446.470703,1565.990112 1466.336792,1566.113892 
	C1477.570801,1566.183838 1488.797607,1567.380249 1500.027710,1568.069336 
	C1524.710327,1574.611206 1543.889038,1590.638184 1564.069580,1605.007202 
	C1569.099365,1608.588623 1574.858032,1611.146362 1581.146484,1614.879150 
	C1584.385010,1618.235596 1586.456787,1621.265381 1589.199097,1623.456177 
	C1594.072266,1627.349365 1599.881470,1630.183716 1604.332031,1634.465942 
	C1610.360352,1640.266357 1619.607178,1642.864990 1621.562500,1651.974731 
	C1614.570801,1647.907593 1608.290283,1643.927002 1602.009766,1639.946289 
	C1596.633179,1635.593262 1591.434082,1630.995850 1585.847412,1626.931763 
	C1567.333374,1613.463501 1549.200317,1599.376465 1529.959351,1587.025146 
	C1500.118042,1567.869141 1468.187866,1565.105103 1434.684448,1577.498169 
	C1419.658447,1583.056396 1407.733398,1593.037598 1395.106201,1602.072876 
	C1369.471558,1620.415527 1344.092896,1639.116211 1318.610107,1657.671387 
	C1311.906006,1662.552979 1305.358521,1667.670166 1298.452881,1672.247559 
	C1294.024048,1675.182983 1293.870239,1678.643799 1294.608643,1683.390503 
	C1296.131226,1693.178833 1297.395020,1703.065552 1297.791992,1712.950806 
	C1298.054810,1719.497192 1296.699707,1726.119751 1295.942749,1732.693604 
	C1293.408936,1754.704834 1290.662231,1776.692993 1288.302002,1798.722534 
	C1286.609253,1814.521240 1285.501953,1830.381714 1283.944214,1846.195923 
	C1283.069214,1855.078247 1281.724487,1863.913086 1280.746704,1872.786499 
	C1279.731689,1881.998047 1278.984497,1891.239014 1277.976685,1900.451416 
	C1276.178833,1916.886108 1274.106567,1933.292358 1272.458252,1949.741455 
	C1270.774658,1966.542603 1269.462769,1983.380981 1267.994141,2001.101562 
	C1266.500000,2002.000000 1265.000000,2002.000000 1262.750000,2002.000000 
	C1263.896484,1985.899536 1265.883423,1969.808838 1267.653931,1953.694580 
	C1268.630859,1944.801880 1269.138916,1935.858643 1270.051636,1926.957886 
	C1270.996826,1917.741577 1272.182251,1908.549927 1273.249878,1899.346069 
	C1274.127197,1891.784180 1275.104492,1884.231323 1275.828491,1876.654541 
	C1277.309692,1861.155762 1278.465210,1845.624146 1280.101562,1830.142700 
	C1281.735840,1814.679932 1283.832153,1799.266602 1285.647949,1783.822388 
	C1286.459961,1776.916626 1287.236572,1770.000366 1287.759644,1763.068481 
	C1289.256470,1743.237183 1291.596069,1723.405396 1291.797974,1703.555420 
	C1292.099731,1673.919312 1279.819824,1648.954224 1260.255859,1627.099243 
	C1246.517944,1611.752563 1228.821777,1602.711670 1210.571045,1594.478271 
	C1189.666992,1585.047974 1168.581055,1576.021729 1147.607300,1566.744629 
	C1123.893555,1556.255737 1100.195190,1545.731445 1076.529907,1535.133423 
	C1055.286621,1525.619873 1034.145630,1515.876831 1012.871887,1506.432373 
	C986.137939,1494.564209 959.276550,1482.982910 932.542419,1471.115112 
	C911.268127,1461.671021 890.150513,1451.874390 868.876404,1442.430054 
	C842.141907,1430.561279 815.307861,1418.917236 788.538696,1407.126343 
	C775.453918,1401.362915 762.344238,1395.647217 749.382568,1389.615845 
	C736.870605,1383.793945 723.840454,1381.020996 710.070312,1379.712158 
	C685.787048,1377.404419 663.363342,1382.300537 642.224487,1393.914917 
	C630.819946,1400.180908 620.985107,1408.447998 612.399780,1418.268799 
	C605.185608,1426.521118 597.704529,1434.541382 590.292786,1442.619385 
	C574.794067,1459.511230 559.119446,1476.244385 543.787170,1493.285645 
	C529.582275,1509.073730 515.808472,1525.248901 501.690887,1541.116699 
	C493.519653,1550.301025 484.938263,1559.119629 476.729034,1568.271240 
	C461.214478,1585.566650 445.858215,1603.003784 430.389008,1620.339966 
	C423.533569,1628.022827 416.593597,1635.631104 409.637573,1643.223267 
	C401.331879,1652.288574 392.849670,1661.194824 384.654968,1670.358765 
	C369.832581,1686.933838 355.184845,1703.665161 340.427429,1720.298584 
	C334.035370,1727.503174 327.614044,1734.683594 321.094482,1741.772583 
	C311.870026,1751.802856 302.076752,1761.350342 293.366364,1771.803955 
	C279.780945,1788.108154 263.641357,1802.217163 252.278992,1820.448608 
	C243.122833,1835.140015 238.233047,1851.045288 235.863434,1868.071411 
	C231.841476,1896.969727 238.745102,1923.119629 253.706833,1947.794800 
	C264.208160,1965.114014 273.816101,1982.974854 283.911530,2001.296875 
	C282.500000,2002.000000 281.000000,2002.000000 278.750000,2002.000000 
z"/>
<path fill="#DDE3F9" opacity="1.000000" stroke="none" 
	d="
M1602.007812,1640.889160 
	C1608.290283,1643.927002 1614.570801,1647.907593 1622.111694,1652.212158 
	C1624.900024,1653.024414 1626.428101,1653.512695 1628.030762,1654.649170 
	C1629.402466,1657.520142 1630.699707,1659.743042 1631.977295,1662.775757 
	C1631.452881,1667.157837 1630.474731,1670.740234 1630.550537,1674.299927 
	C1630.676880,1680.234741 1631.923462,1686.154785 1631.928833,1692.081543 
	C1632.022339,1795.387695 1631.998413,1898.693848 1632.000000,2002.000000 
	C1622.621460,2002.000000 1613.243042,2002.000000 1602.932251,2002.000000 
	C1602.001953,1881.943970 1602.003906,1761.888062 1602.007812,1640.889160 
z"/>
<path fill="#D7DEF1" opacity="1.000000" stroke="none" 
	d="
M1632.926392,2002.000000 
	C1631.998413,1898.693848 1632.022339,1795.387695 1631.928833,1692.081543 
	C1631.923462,1686.154785 1630.676880,1680.234741 1630.550537,1674.299927 
	C1630.474731,1670.740234 1631.452881,1667.157837 1632.674805,1662.867920 
	C1637.205200,1664.682861 1640.893311,1667.436035 1644.865356,1669.688110 
	C1649.053955,1672.062866 1653.513916,1673.959229 1657.855225,1676.064575 
	C1657.898560,1757.827515 1657.944824,1839.590332 1657.983643,1921.353271 
	C1657.996094,1947.610596 1657.988770,1973.868042 1657.995239,2001.062744 
	C1649.950928,2002.000000 1641.901855,2002.000000 1632.926392,2002.000000 
z"/>
<path fill="#FAFBFD" opacity="1.000000" stroke="none" 
	d="
M418.036835,1580.008667 
	C417.140533,1580.018066 416.244232,1580.027466 414.675781,1580.018555 
	C408.698792,1572.398071 403.624878,1564.622070 398.046417,1557.226440 
	C380.273438,1533.664307 362.275421,1510.271973 344.435272,1486.760254 
	C327.126312,1463.948608 305.238251,1448.280884 276.751465,1442.536011 
	C259.488281,1439.054688 242.400620,1439.751831 225.777771,1445.216064 
	C203.387177,1452.576294 181.271317,1460.767822 158.975540,1468.422119 
	C137.614380,1475.755615 116.133484,1482.740845 94.779160,1490.093994 
	C71.211418,1498.209106 47.734444,1506.587524 24.203627,1514.810303 
	C17.323168,1517.214600 10.393865,1519.479248 2.743476,1521.904053 
	C2.000000,1520.500000 2.000000,1519.000000 1.999990,1516.750000 
	C15.629442,1511.820557 29.311775,1507.804321 42.870670,1503.407349 
	C52.667892,1500.229980 62.267696,1496.449585 72.012970,1493.105347 
	C122.641853,1475.731812 173.282578,1458.392700 223.932083,1441.079102 
	C266.314087,1426.591553 318.107330,1442.631836 344.989746,1479.458618 
	C365.136139,1507.057617 386.191772,1533.992920 407.688538,1562.227051 
	C411.504639,1568.934937 418.091309,1572.591187 418.036835,1580.008667 
z"/>
<path fill="#FAFBFD" opacity="1.000000" stroke="none" 
	d="
M3002.000000,1361.333496 
	C2820.829590,1361.819824 2639.658936,1361.640381 2458.488525,1361.397217 
	C2458.175537,1361.396851 2457.863281,1360.451782 2457.550781,1359.945435 
	C2457.896729,1359.457031 2458.242188,1358.545898 2458.588623,1358.545410 
	C2639.101074,1358.322998 2819.613281,1358.161987 3001.062744,1358.000000 
	C3002.000000,1358.888916 3002.000000,1359.777832 3002.000000,1361.333496 
z"/>
<path fill="#FAFBFD" opacity="1.000000" stroke="none" 
	d="
M3002.000000,1295.333374 
	C2820.828857,1295.813477 2639.657471,1295.627563 2458.486328,1295.378296 
	C2458.172607,1295.377808 2457.859863,1294.434204 2457.546875,1293.928467 
	C2457.894043,1293.441284 2458.240479,1292.532227 2458.587891,1292.531738 
	C2639.100342,1292.309570 2819.613037,1292.148682 3001.062744,1291.993652 
	C3002.000000,1292.888916 3002.000000,1293.777832 3002.000000,1295.333374 
z"/>
<path fill="#FAFBFD" opacity="1.000000" stroke="none" 
	d="
M3002.000000,1813.073608 
	C2999.686035,1813.994873 2997.358154,1814.150269 2995.060303,1813.955566 
	C2986.718994,1813.248779 2981.873047,1808.248779 2982.047119,1800.689209 
	C2982.222656,1793.064819 2987.158936,1788.330811 2995.329102,1787.996338 
	C2996.979004,1787.928711 2998.634521,1787.992432 3001.143555,1787.997803 
	C3002.000000,1796.049072 3002.000000,1804.098145 3002.000000,1813.073608 
z"/>
<path fill="#D2D7EB" opacity="1.000000" stroke="none" 
	d="
M780.000000,372.001221 
	C745.335510,372.001221 711.670837,372.054321 678.006836,371.922516 
	C674.474670,371.908722 670.339905,371.757050 667.556274,369.985535 
	C663.167786,367.192688 658.981812,363.430176 660.137085,356.969910 
	C661.234741,350.831665 666.313965,345.384827 672.724121,344.267670 
	C675.320740,343.815125 678.040283,344.008545 680.703918,344.008453 
	C956.352844,343.999420 1232.001709,343.987366 1507.650635,344.111084 
	C1512.137207,344.113068 1517.016113,344.956329 1521.016846,346.864197 
	C1526.948853,349.693024 1529.073853,355.352417 1527.817749,360.995239 
	C1526.725098,365.903595 1520.259033,371.528625 1514.949463,371.934296 
	C1511.966431,372.162231 1508.953125,372.000061 1505.953369,372.000061 
	C1264.302246,372.001312 1022.651123,372.001221 780.000000,372.001221 
z"/>
<path fill="#D2D7EB" opacity="1.000000" stroke="none" 
	d="
M1627.956055,1654.000977 
	C1626.428101,1653.512695 1624.900024,1653.024414 1622.822754,1652.298584 
	C1619.607178,1642.864990 1610.360352,1640.266357 1604.332031,1634.465942 
	C1599.881470,1630.183716 1594.072266,1627.349365 1589.199097,1623.456177 
	C1586.456787,1621.265381 1584.385010,1618.235596 1581.881836,1614.912598 
	C1584.927612,1610.555664 1588.241089,1612.461914 1591.703735,1613.822388 
	C1599.579102,1616.916992 1601.892944,1615.456055 1604.084961,1606.991943 
	C1604.704590,1604.599731 1606.295898,1602.453735 1607.477661,1600.213867 
	C1608.979126,1597.368164 1611.194458,1594.706665 1611.931519,1591.680542 
	C1617.296997,1569.651978 1626.919922,1549.699341 1642.315552,1533.122314 
	C1649.681396,1525.191162 1659.077881,1519.148315 1667.541626,1512.234009 
	C1680.473145,1501.670044 1696.429443,1497.493286 1711.621948,1492.006226 
	C1736.582153,1482.991455 1761.875122,1474.889160 1787.087036,1466.581787 
	C1819.573120,1455.877563 1852.112915,1445.335938 1884.638550,1434.751709 
	C1907.655151,1427.261719 1930.710938,1419.891113 1953.704834,1412.332153 
	C1979.508667,1403.849243 2005.218872,1395.079834 2031.054932,1386.697021 
	C2045.867065,1381.890869 2060.922363,1377.834717 2075.735840,1373.032227 
	C2099.990234,1365.168945 2123.984863,1356.468018 2148.389648,1349.118530 
	C2161.639160,1345.128418 2175.258545,1341.783325 2189.378906,1341.976929 
	C2198.368896,1342.100220 2207.386230,1342.414185 2216.347412,1341.891846 
	C2226.782959,1341.283447 2235.805420,1345.751343 2245.154785,1348.975952 
	C2247.710449,1349.857544 2249.585205,1352.713867 2251.896484,1355.360107 
	C2229.328369,1351.889160 2207.507324,1354.041016 2185.454834,1361.606323 
	C2136.483887,1378.406738 2087.042236,1393.835571 2037.787720,1409.809326 
	C1986.005737,1426.602661 1934.210205,1443.354492 1882.435669,1460.170654 
	C1829.415283,1477.391602 1776.265869,1494.233032 1723.455444,1512.076782 
	C1689.148926,1523.668335 1669.366333,1549.294067 1660.344727,1583.542358 
	C1658.349609,1591.116577 1658.218872,1599.308716 1658.110352,1607.228394 
	C1657.822632,1628.200562 1658.017090,1649.179321 1657.304199,1671.025635 
	C1652.823364,1669.411621 1649.111084,1666.841553 1645.280029,1664.463135 
	C1639.549194,1660.905029 1633.734863,1657.481567 1627.956055,1654.000977 
z"/>
<path fill="#D2D7EB" opacity="1.000000" stroke="none" 
	d="
M418.014221,1580.002319 
	C418.091309,1572.591187 411.504639,1568.934937 408.213989,1562.630371 
	C411.224854,1562.017212 414.617676,1562.390503 417.869049,1561.873779 
	C420.662872,1561.429810 423.389557,1560.159546 425.961792,1558.883423 
	C427.393433,1558.173340 428.298950,1555.977539 429.696594,1555.689819 
	C444.414734,1552.659180 448.873230,1538.172974 458.778809,1529.806641 
	C461.507172,1527.502197 463.215912,1524.034668 465.682098,1521.368652 
	C483.500702,1502.107544 501.399628,1482.920776 519.261475,1463.699585 
	C536.443054,1445.210327 553.460266,1426.565674 570.823669,1408.249023 
	C591.339539,1386.606445 616.860352,1373.085815 645.590637,1366.804688 
	C667.707520,1361.969360 690.435608,1361.517578 712.614441,1368.177002 
	C715.214539,1368.957764 717.373718,1371.206909 719.824829,1373.528931 
	C698.573059,1373.272461 677.504883,1373.964722 657.025635,1381.366333 
	C642.067993,1386.772339 628.453369,1394.458740 617.591858,1405.792847 
	C598.770325,1425.433350 580.885071,1445.971680 562.622498,1466.147339 
	C556.162354,1473.284180 549.794617,1480.505005 543.302002,1487.611816 
	C527.848999,1504.526489 512.227051,1521.288330 496.899261,1538.315308 
	C482.472870,1554.340698 468.411804,1570.694824 454.027710,1586.758789 
	C449.373962,1591.956055 444.206116,1596.692993 438.099426,1601.602539 
	C432.646210,1597.042969 428.367004,1592.521484 423.985840,1587.345703 
	C421.918488,1584.444946 419.953125,1582.198608 417.987762,1579.952271 
	C417.987762,1579.952271 417.991577,1579.995972 418.014221,1580.002319 
z"/>
<path fill="#D2D7EB" opacity="1.000000" stroke="none" 
	d="
M2775.901367,1455.379639 
	C2769.123779,1455.519165 2762.185059,1454.309326 2755.287842,1454.512207 
	C2747.401367,1454.744141 2739.478027,1455.830322 2731.701416,1457.257080 
	C2714.829590,1460.352295 2699.961182,1467.506836 2685.979736,1477.803711 
	C2629.619385,1519.311523 2572.762207,1560.144653 2516.117920,1601.267456 
	C2505.380859,1609.062378 2494.789062,1617.056885 2484.108154,1624.928955 
	C2478.433594,1629.111328 2477.859619,1629.142944 2473.842041,1623.734009 
	C2465.343994,1612.292603 2457.012695,1600.727417 2448.319580,1588.609375 
	C2450.274658,1588.476685 2452.761475,1588.486938 2454.727051,1589.504272 
	C2460.817871,1592.657104 2466.397217,1591.328735 2472.867188,1589.953979 
	C2490.656738,1586.174561 2502.809814,1573.534180 2516.767822,1563.890869 
	C2538.008057,1549.216553 2558.595459,1533.594971 2579.395020,1518.286987 
	C2589.519043,1510.835815 2599.312256,1502.923950 2609.587891,1495.693115 
	C2620.690674,1487.879883 2632.694824,1481.278687 2643.392334,1472.972656 
	C2662.843750,1457.870117 2685.253906,1450.165527 2708.832275,1445.631958 
	C2725.830322,1442.363403 2743.193115,1442.022217 2759.889893,1447.858765 
	C2765.265869,1449.738037 2772.194092,1448.452759 2775.901367,1455.379639 
z"/>
<path fill="#D2D7EB" opacity="1.000000" stroke="none" 
	d="
M1499.893677,1567.358887 
	C1488.797607,1567.380249 1477.570801,1566.183838 1466.336792,1566.113892 
	C1446.470703,1565.990112 1428.426880,1572.969116 1412.084351,1583.474609 
	C1398.173340,1592.417236 1385.427612,1603.161987 1372.071289,1612.980225 
	C1346.684937,1631.641479 1321.238892,1650.221436 1295.773438,1668.774536 
	C1294.812622,1669.474487 1293.391235,1669.542480 1292.552979,1669.794312 
	C1286.238647,1658.054199 1280.179077,1646.787598 1273.986084,1634.836426 
	C1274.343018,1633.712280 1274.864990,1632.859253 1275.319092,1632.893921 
	C1285.001343,1633.633545 1293.126831,1628.237793 1301.627441,1625.278442 
	C1309.770874,1622.443359 1316.653442,1615.938232 1324.029053,1610.955688 
	C1345.128662,1596.701904 1364.682251,1580.204468 1387.834351,1568.937622 
	C1412.325439,1557.019165 1438.011475,1551.586670 1464.917114,1554.344238 
	C1477.122070,1555.595093 1489.585205,1558.499512 1499.893677,1567.358887 
z"/>
<path fill="#FAFBFD" opacity="1.000000" stroke="none" 
	d="
M1116.000000,328.020081 
	C1240.185059,328.020081 1363.370239,328.020081 1486.555298,328.020081 
	C1486.819092,328.772736 1487.083008,329.525391 1487.346802,330.278076 
	C1485.822754,331.428986 1484.433594,333.238586 1482.744873,333.584076 
	C1479.857422,334.174805 1476.782104,333.899689 1473.785767,333.899780 
	C1204.543579,333.907684 935.301270,333.917694 666.059082,333.815826 
	C661.595764,333.814117 656.136353,335.834839 652.933411,330.860901 
	C653.229614,329.789062 653.242432,329.410828 653.428589,329.162781 
	C653.613770,328.915955 653.972961,328.648346 654.256348,328.647919 
	C807.837524,328.424133 961.418762,328.222229 1116.000000,328.020081 
z"/>
<path fill="#FAFBFD" opacity="1.000000" stroke="none" 
	d="
M822.000000,396.017822 
	C1044.162354,396.017853 1265.324829,396.017853 1486.487183,396.017853 
	C1486.769043,396.731323 1487.051025,397.444763 1487.332886,398.158234 
	C1485.861450,399.343872 1484.545166,401.157349 1482.882202,401.568665 
	C1480.358032,402.192902 1477.593140,401.899536 1474.930420,401.899628 
	C1217.035278,401.908173 959.140198,401.915680 701.245056,401.837616 
	C697.014465,401.836334 691.935242,403.594879 687.709717,396.866333 
	C711.027100,395.104828 733.055725,396.286011 755.027466,396.066162 
	C777.016296,395.846100 799.008972,396.017822 822.000000,396.017822 
z"/>
<path fill="#FAFBFD" opacity="1.000000" stroke="none" 
	d="
M135.557755,1135.851929 
	C134.005295,1142.293701 131.566315,1147.128906 125.427696,1149.148804 
	C119.368790,1151.142456 112.988853,1148.970215 109.910210,1143.651733 
	C106.258614,1137.343384 107.421371,1128.868286 112.520851,1124.623535 
	C117.176193,1120.748535 125.576424,1120.596802 129.757019,1125.074463 
	C132.341888,1127.843140 133.735580,1131.723877 135.557755,1135.851929 
z"/>
<path fill="#FAFBFD" opacity="1.000000" stroke="none" 
	d="
M78.717667,1169.321045 
	C88.043526,1173.559570 90.967216,1178.263916 89.213486,1185.338257 
	C87.228966,1193.343628 82.750557,1196.469971 73.934410,1196.004639 
	C64.141960,1195.487793 58.089310,1184.886353 63.272720,1176.471680 
	C66.432426,1171.342041 70.967400,1167.273926 78.717667,1169.321045 
z"/>
<path fill="#FAFBFD" opacity="1.000000" stroke="none" 
	d="
M325.904724,1134.297241 
	C324.994324,1137.854858 324.574280,1140.982422 323.018982,1143.370728 
	C318.253021,1150.689575 310.100006,1151.663452 303.263000,1146.130127 
	C297.279938,1141.287842 296.277008,1132.557617 300.929260,1126.646851 
	C304.839264,1121.678955 316.435638,1119.369507 321.163452,1126.151611 
	C322.830780,1128.543579 324.310486,1131.066162 325.904724,1134.297241 
z"/>
<path fill="#FAFBFD" opacity="1.000000" stroke="none" 
	d="
M390.606140,1129.495850 
	C393.697510,1124.809937 396.853180,1121.820068 402.266327,1121.928833 
	C408.583588,1122.055786 414.012207,1125.087158 415.669739,1130.140869 
	C417.786591,1136.594971 415.170929,1144.767090 409.987396,1147.894287 
	C404.650543,1151.114014 398.194000,1150.378174 393.378387,1146.118042 
	C388.261322,1141.591187 390.227325,1135.750854 390.606140,1129.495850 
z"/>
<path fill="#FAFBFD" opacity="1.000000" stroke="none" 
	d="
M280.672241,1186.483398 
	C277.385925,1192.868896 273.340851,1196.632935 266.264526,1196.069702 
	C260.019470,1195.572632 255.171432,1191.981812 254.103638,1186.418701 
	C252.635590,1178.770264 256.693756,1171.683105 264.016022,1169.107910 
	C268.594940,1167.497559 276.716583,1169.990723 278.754120,1174.514282 
	C280.288483,1177.920776 280.302582,1182.012207 280.672241,1186.483398 
z"/>
<path fill="#FAFBFD" opacity="1.000000" stroke="none" 
	d="
M372.008270,1183.834229 
	C371.413940,1191.096558 367.890991,1194.891724 361.531677,1195.942627 
	C355.377716,1196.959473 350.496765,1194.898315 346.981934,1189.650513 
	C343.491913,1184.439697 344.254456,1176.781006 348.777954,1172.450684 
	C353.541290,1167.890747 360.691742,1167.360962 366.006989,1171.291382 
	C369.919739,1174.184692 372.707123,1177.737915 372.008270,1183.834229 
z"/>
<path fill="#FAFBFD" opacity="1.000000" stroke="none" 
	d="
M568.828674,189.340958 
	C565.800842,189.527496 563.377380,189.900681 561.248535,189.273804 
	C554.564758,187.305725 550.440430,179.670654 552.515015,173.708099 
	C555.230774,165.902740 563.973633,162.074722 570.994324,165.617050 
	C577.561157,168.930389 580.060303,176.889435 576.050110,183.353378 
	C574.596008,185.697296 571.768616,187.189301 568.828674,189.340958 
z"/>
<path fill="#FAFBFD" opacity="1.000000" stroke="none" 
	d="
M1068.829102,189.745392 
	C1066.241577,188.251663 1064.156738,187.121750 1062.640991,185.469589 
	C1057.804932,180.198074 1057.323975,176.455322 1060.413574,171.305817 
	C1063.732422,165.774246 1068.227417,163.328934 1073.353760,164.266159 
	C1079.077759,165.312698 1083.261353,169.337997 1083.931763,174.444031 
	C1084.912476,181.912384 1082.891846,185.922211 1076.284058,188.662979 
	C1074.238525,189.511459 1071.833130,189.492172 1068.829102,189.745392 
z"/>
<path fill="#FAFBFD" opacity="1.000000" stroke="none" 
	d="
M1041.733154,132.577454 
	C1042.552856,140.587860 1037.793701,143.967163 1032.269043,146.724060 
	C1027.536621,149.085678 1024.092041,146.211197 1020.701294,143.574020 
	C1016.675415,140.442810 1014.900818,136.345474 1016.626221,131.379852 
	C1018.172180,126.930717 1020.365540,122.689011 1025.792969,122.141754 
	C1030.755005,121.641426 1035.858521,121.382805 1038.996826,126.508781 
	C1040.021118,128.181808 1040.743408,130.039642 1041.733154,132.577454 
z"/>
<path fill="#FAFBFD" opacity="1.000000" stroke="none" 
	d="
M427.341003,129.529449 
	C433.877472,120.690392 443.118073,119.246201 448.392548,125.753204 
	C451.445343,129.519363 453.338562,133.993500 451.178986,138.703659 
	C449.009521,143.435379 444.910828,146.940399 439.743591,147.378891 
	C434.392761,147.832993 430.075653,144.603088 428.064301,139.669479 
	C426.913849,136.847672 427.307892,133.396179 427.341003,129.529449 
z"/>
<path fill="#FAFBFD" opacity="1.000000" stroke="none" 
	d="
M783.862000,145.990845 
	C776.066406,149.843842 771.808533,145.094757 767.932251,140.558746 
	C764.396179,136.420853 765.882263,131.743454 768.337280,127.536751 
	C771.609802,121.929192 780.318298,119.940613 785.844788,123.363029 
	C791.236938,126.702271 793.262817,134.318817 789.886108,139.928940 
	C788.566101,142.122070 786.345703,143.773254 783.862000,145.990845 
z"/>
<path fill="#FAFBFD" opacity="1.000000" stroke="none" 
	d="
M646.661865,185.577347 
	C641.461670,180.040604 642.267761,174.741821 645.705200,169.648026 
	C648.470642,165.549927 652.300659,163.144516 657.625183,164.294800 
	C662.987122,165.453125 667.121338,169.228439 667.919556,173.858963 
	C669.073669,180.553848 667.533630,184.733459 662.480530,187.655869 
	C657.086060,190.775635 651.803589,191.338409 646.661865,185.577347 
z"/>
<path fill="#FAFBFD" opacity="1.000000" stroke="none" 
	d="
M827.609680,177.728241 
	C826.217896,180.750961 825.228455,183.295929 823.565430,185.274811 
	C818.770874,190.980179 811.363953,191.424438 806.087036,186.606461 
	C800.912048,181.881531 800.735718,172.774445 805.722412,167.769577 
	C811.032654,162.439957 819.036560,162.861694 823.867004,169.088776 
	C825.623352,171.352982 826.452271,174.336594 827.609680,177.728241 
z"/>
<path fill="#FAFBFD" opacity="1.000000" stroke="none" 
	d="
M738.134644,189.888580 
	C732.493347,188.934326 728.788635,186.583649 726.963501,181.728134 
	C724.733032,175.794357 726.796692,169.266479 732.003479,166.107452 
	C737.770447,162.608551 743.313293,163.589005 747.841370,168.909042 
	C752.660583,174.571243 753.008057,179.413223 747.942505,184.709991 
	C745.637207,187.120407 741.965942,188.224503 738.134644,189.888580 
z"/>
<path fill="#FAFBFD" opacity="1.000000" stroke="none" 
	d="
M976.086914,176.228516 
	C976.969727,173.314621 977.467102,170.935272 978.747070,169.102509 
	C981.774902,164.767105 988.517090,162.891068 992.892395,164.780273 
	C996.888367,166.505676 1001.805176,173.509415 1001.668030,177.280701 
	C1001.507507,181.698196 995.799744,188.620789 991.424988,189.703995 
	C986.584656,190.902496 980.516663,188.315475 977.978333,183.570923 
	C976.926392,181.604630 976.673523,179.210846 976.086914,176.228516 
z"/>
<path fill="#FAFBFD" opacity="1.000000" stroke="none" 
	d="
M609.531738,147.057831 
	C602.318359,146.357559 597.761902,142.885666 596.194275,136.445251 
	C594.821838,130.806793 598.303711,124.711792 603.443176,122.633675 
	C608.162964,120.725235 615.761414,122.631477 618.958801,126.526108 
	C622.756958,131.152496 622.916504,137.232224 618.523682,141.926773 
	C616.415894,144.179428 613.030396,145.236572 609.531738,147.057831 
z"/>
<path fill="#FAFBFD" opacity="1.000000" stroke="none" 
	d="
M474.832886,187.675888 
	C470.776581,183.554031 467.435608,180.113846 469.615723,174.190979 
	C472.006592,167.695389 477.857849,163.259857 483.765839,164.339722 
	C490.137299,165.504303 493.978729,170.226181 494.003235,176.923569 
	C494.029236,184.029587 490.038788,188.937820 482.930511,189.682999 
	C480.500336,189.937759 477.915527,188.717636 474.832886,187.675888 
z"/>
<path fill="#FAFBFD" opacity="1.000000" stroke="none" 
	d="
M511.336121,129.549850 
	C520.005615,119.127831 530.001892,119.314560 534.557312,129.283371 
	C537.525269,135.778320 535.736389,141.073608 529.148010,145.295334 
	C523.861938,148.682571 518.533386,147.982254 514.175293,142.945328 
	C511.054504,139.338486 508.869446,135.270645 511.336121,129.549850 
z"/>
<path fill="#FAFBFD" opacity="1.000000" stroke="none" 
	d="
M953.932007,132.380463 
	C952.912109,140.572784 948.983398,145.773605 943.508484,147.012711 
	C939.501465,147.919601 933.413452,145.133286 930.745728,141.171722 
	C927.472839,136.311371 928.353699,128.639114 932.604126,124.986496 
	C936.935303,121.264389 945.058044,120.724998 949.075867,124.417770 
	C951.138672,126.313759 952.317322,129.171799 953.932007,132.380463 
z"/>
<path fill="#FAFBFD" opacity="1.000000" stroke="none" 
	d="
M907.593262,185.193649 
	C905.365417,186.820969 903.794556,188.170120 901.973755,188.853577 
	C895.461975,191.297791 889.722656,189.036789 886.867981,183.142426 
	C884.125488,177.479721 886.237427,169.599152 891.356506,166.394119 
	C897.036865,162.837662 904.538269,164.002914 908.130859,169.554352 
	C911.238159,174.355743 910.971252,179.588287 907.593262,185.193649 
z"/>
<path fill="#FAFBFD" opacity="1.000000" stroke="none" 
	d="
M857.459229,147.063446 
	C845.304626,144.448578 842.797607,141.494522 844.036133,132.310440 
	C844.880005,126.053543 850.025940,121.805809 856.503906,122.019012 
	C862.439636,122.214371 867.183411,126.475952 867.965393,132.315170 
	C869.069397,140.559845 867.189758,143.349182 857.459229,147.063446 
z"/>
<path fill="#FAFBFD" opacity="1.000000" stroke="none" 
	d="
M687.518188,125.543320 
	C699.281494,118.891525 708.081604,123.307953 708.030884,134.985443 
	C707.998535,142.433182 705.320129,145.469284 698.293213,146.023712 
	C689.478210,146.719223 685.458984,144.306610 684.246094,137.198135 
	C683.567139,133.219101 683.545105,129.191986 687.518188,125.543320 
z"/>
<path fill="#FAFBFD" opacity="1.000000" stroke="none" 
	d="
M1110.400635,122.052109 
	C1117.379517,121.441231 1121.500854,124.742805 1123.429688,129.989883 
	C1125.049194,134.395142 1124.374756,139.008163 1120.433960,142.653137 
	C1115.662109,147.066681 1106.588013,147.500198 1102.492065,143.226364 
	C1098.727173,139.297943 1098.823608,130.320374 1103.056763,126.093613 
	C1104.817627,124.335373 1107.397827,123.397438 1110.400635,122.052109 
z"/>
<path fill="#FAFBFD" opacity="1.000000" stroke="none" 
	d="
M2864.677734,543.269104 
	C2852.924316,544.280823 2849.495605,542.694641 2846.974365,535.763428 
	C2844.754395,529.661133 2848.199219,523.012634 2854.708008,520.836731 
	C2860.498047,518.901123 2868.598877,522.877441 2869.652100,528.741821 
	C2870.586914,533.943665 2871.026855,539.462341 2864.677734,543.269104 
z"/>
<path fill="#FAFBFD" opacity="1.000000" stroke="none" 
	d="
M2730.438965,480.076538 
	C2742.567871,481.723297 2747.735107,490.281708 2742.320557,498.414612 
	C2738.677002,503.887299 2730.886963,505.794067 2725.868652,502.441498 
	C2720.531250,498.875763 2718.575928,491.338562 2722.275635,485.980347 
	C2723.983398,483.506714 2727.148193,482.039001 2730.438965,480.076538 
z"/>
<path fill="#FAFBFD" opacity="1.000000" stroke="none" 
	d="
M2812.422363,503.933105 
	C2802.212158,499.170990 2799.325684,493.096130 2803.240967,486.234436 
	C2805.791748,481.763397 2810.511963,479.438202 2815.729736,480.082184 
	C2820.383545,480.656555 2824.480957,484.695740 2825.609375,489.821838 
	C2826.528564,493.997528 2823.961670,500.232574 2819.804932,502.541962 
	C2817.923340,503.587219 2815.427490,503.526337 2812.422363,503.933105 
z"/>
<path fill="#FAFBFD" opacity="1.000000" stroke="none" 
	d="
M2778.284668,542.733276 
	C2775.947754,543.403564 2774.322266,543.956970 2772.697510,543.953552 
	C2766.880859,543.941467 2761.724365,540.427124 2760.368652,535.767883 
	C2759.106201,531.429260 2761.428711,525.196838 2765.314697,522.494080 
	C2769.801758,519.373291 2774.478516,519.487427 2779.264404,522.834412 
	C2783.809326,526.012939 2785.437988,531.202576 2783.169678,537.001038 
	C2782.378662,539.022461 2780.421143,540.587524 2778.284668,542.733276 
z"/>
<path fill="#FAFBFD" opacity="1.000000" stroke="none" 
	d="
M2983.032715,501.300781 
	C2972.235352,505.480743 2965.243164,502.533783 2964.051025,494.002014 
	C2963.309570,488.696411 2965.569580,483.968170 2970.106445,481.332550 
	C2973.929932,479.111298 2979.985840,479.614014 2983.180176,482.418030 
	C2987.365234,486.091736 2988.679688,491.514801 2986.443848,496.789886 
	C2985.814697,498.274414 2984.613037,499.516174 2983.032715,501.300781 
z"/>
<path fill="#FAFBFD" opacity="1.000000" stroke="none" 
	d="
M2685.878418,542.434937 
	C2679.461670,532.348816 2680.971680,525.170654 2689.368164,521.337036 
	C2693.534912,519.434692 2697.064697,519.876953 2700.199463,523.215515 
	C2703.411621,526.636414 2706.827637,530.150879 2705.065674,535.370544 
	C2703.655273,539.549011 2701.335205,543.491028 2696.306152,543.814148 
	C2693.081299,544.021484 2689.793457,543.256165 2685.878418,542.434937 
z"/>
<path fill="#FAFBFD" opacity="1.000000" stroke="none" 
	d="
M2647.687012,502.756592 
	C2638.778320,495.504883 2637.986816,488.044678 2644.903320,482.754944 
	C2649.180420,479.483826 2654.848389,479.146851 2658.771729,481.930634 
	C2663.062744,484.975372 2664.970947,489.897766 2663.830566,494.981720 
	C2662.799561,499.579468 2658.333008,503.468292 2653.228027,503.874878 
	C2651.644531,504.000977 2650.000977,503.375214 2647.687012,502.756592 
z"/>
<path fill="#FAFBFD" opacity="1.000000" stroke="none" 
	d="
M2891.737305,481.253326 
	C2902.998779,479.660187 2909.121094,484.824402 2907.973145,493.931274 
	C2907.364990,498.756470 2904.242432,501.584412 2900.248535,503.425354 
	C2896.652588,505.082794 2889.723877,503.322845 2887.656494,499.931427 
	C2885.499756,496.393707 2882.846191,492.365570 2885.289062,487.996368 
	C2886.655762,485.551605 2889.091553,483.704315 2891.737305,481.253326 
z"/>
<path fill="#FAFBFD" opacity="1.000000" stroke="none" 
	d="
M2930.680176,522.843384 
	C2935.809082,519.272156 2940.443604,519.889954 2943.918457,523.446716 
	C2946.503418,526.092163 2948.979248,529.908569 2949.340332,533.425842 
	C2949.965088,539.504944 2943.545166,544.186462 2936.470703,543.994263 
	C2929.197266,543.796753 2926.345947,540.969421 2925.978027,533.804688 
	C2925.764648,529.648438 2926.347656,525.883911 2930.680176,522.843384 
z"/>
<path fill="#FAFBFD" opacity="1.000000" stroke="none" 
	d="
M171.571655,1181.530640 
	C174.048965,1179.435669 176.016479,1177.845825 177.984955,1176.255249 
	C182.492416,1181.941895 182.623001,1184.177246 179.140320,1189.426392 
	C174.799759,1195.968506 171.396774,1196.975098 159.627747,1194.326782 
	C163.791321,1189.851196 167.426590,1185.943481 171.571655,1181.530640 
z"/>
<path fill="#FAFBFD" opacity="1.000000" stroke="none" 
	d="
M229.645172,1137.763062 
	C223.921036,1149.191040 219.834946,1151.258911 210.193192,1147.804688 
	C212.598129,1138.879639 221.121140,1136.293335 227.754395,1129.988892 
	C228.627304,1133.020874 229.207825,1135.037354 229.645172,1137.763062 
z"/>
<path fill="#FAFBFD" opacity="1.000000" stroke="none" 
	d="
M2755.682617,1743.354980 
	C2767.484863,1737.036865 2777.327637,1741.620483 2777.980225,1752.931519 
	C2778.299072,1758.457886 2774.230469,1764.916382 2768.970947,1767.234009 
	C2764.793945,1769.074585 2758.323730,1767.314819 2754.404297,1763.272339 
	C2749.837158,1758.561768 2749.088623,1753.860229 2752.151855,1747.869873 
	C2752.893311,1746.419678 2754.121094,1745.218384 2755.682617,1743.354980 
z"/>
<path fill="#FAFBFD" opacity="1.000000" stroke="none" 
	d="
M2839.348633,1762.322998 
	C2833.040283,1750.575317 2837.570068,1740.748901 2848.821045,1740.029419 
	C2854.977783,1739.635620 2859.713867,1742.826538 2862.585205,1749.302856 
	C2864.800537,1754.299072 2863.583984,1759.475098 2859.209717,1763.665527 
	C2854.476074,1768.200317 2849.836914,1768.919678 2843.845947,1765.847290 
	C2842.402100,1765.106689 2841.206299,1763.882690 2839.348633,1762.322998 
z"/>
<path fill="#FAFBFD" opacity="1.000000" stroke="none" 
	d="
M2934.495117,1744.489014 
	C2939.102295,1739.292236 2944.183838,1738.900757 2949.422852,1741.075928 
	C2953.962646,1742.960938 2958.475830,1750.463989 2957.790771,1754.766357 
	C2956.907959,1760.312134 2953.834473,1764.421753 2948.518799,1766.680664 
	C2943.254639,1768.917847 2937.402832,1767.116089 2932.821777,1761.780273 
	C2928.557129,1756.813354 2928.871094,1752.130005 2934.495117,1744.489014 
z"/>
<path fill="#FAFBFD" opacity="1.000000" stroke="none" 
	d="
M2683.379639,1744.490723 
	C2687.485352,1749.096924 2688.464844,1753.392944 2686.180908,1758.639160 
	C2683.171875,1765.550781 2676.873047,1769.274902 2670.591309,1767.187622 
	C2662.181885,1764.393311 2657.971924,1756.343750 2660.833740,1748.532715 
	C2663.404297,1741.517822 2670.281982,1738.373413 2677.734863,1741.005005 
	C2679.555664,1741.647827 2681.142578,1742.954102 2683.379639,1744.490723 
z"/>
<path fill="#FAFBFD" opacity="1.000000" stroke="none" 
	d="
M2889.535889,1788.576172 
	C2892.618164,1788.184448 2894.948242,1787.932983 2897.265869,1788.017578 
	C2905.262695,1788.309448 2910.769775,1794.659424 2909.893555,1802.441040 
	C2909.003906,1810.339722 2901.609375,1815.344971 2893.042969,1813.846313 
	C2885.283691,1812.489014 2880.075195,1804.910278 2882.619141,1797.625000 
	C2883.750732,1794.385010 2886.670166,1791.769409 2889.535889,1788.576172 
z"/>
<path fill="#FAFBFD" opacity="1.000000" stroke="none" 
	d="
M2816.754395,1806.329834 
	C2810.282471,1814.323853 2803.508789,1816.073486 2796.496826,1812.186646 
	C2791.806641,1809.586792 2789.234619,1804.028442 2790.229004,1798.640381 
	C2791.379150,1792.407471 2795.568604,1788.473511 2801.560303,1788.000610 
	C2813.783447,1787.035889 2818.696045,1792.606201 2816.754395,1806.329834 
z"/>
<path fill="#FAFBFD" opacity="1.000000" stroke="none" 
	d="
M2733.380371,1804.869141 
	C2727.877930,1813.682495 2721.558105,1816.078613 2713.928467,1812.880737 
	C2708.547607,1810.625488 2705.345459,1805.005249 2706.143799,1799.217651 
	C2707.056396,1792.600464 2711.484863,1788.402466 2717.980713,1787.996948 
	C2729.424072,1787.282593 2733.527588,1791.506348 2733.380371,1804.869141 
z"/>
<path fill="#FAFBFD" opacity="1.000000" stroke="none" 
	d="
M2636.026123,1789.385498 
	C2640.309326,1792.673950 2642.258057,1796.105347 2642.088623,1800.972412 
	C2641.799072,1809.280273 2637.439453,1813.937622 2629.180420,1814.000488 
	C2620.793945,1814.064331 2616.113281,1809.565918 2615.995361,1801.328369 
	C2615.875000,1792.913696 2620.218506,1788.201294 2628.511230,1788.044556 
	C2630.788818,1788.001465 2633.078857,1788.609985 2636.026123,1789.385498 
z"/>
<path fill="#E5EBFF" opacity="1.000000" stroke="none" 
	d="
M424.087799,1588.000000 
	C428.367004,1592.521484 432.646210,1597.042969 437.515167,1601.941650 
	C437.113647,1604.022583 436.122375,1605.726318 434.580963,1607.714233 
	C430.198578,1601.768311 426.366333,1595.538086 422.779510,1588.667236 
	C423.379211,1588.017700 423.733521,1588.008911 424.087799,1588.000000 
z"/>
<path fill="#FAFBFD" opacity="1.000000" stroke="none" 
	d="
M423.985840,1587.345703 
	C423.733521,1588.008911 423.379211,1588.017700 422.493408,1588.050903 
	C420.627686,1585.835205 419.293518,1583.595215 417.973572,1580.653809 
	C419.953125,1582.198608 421.918488,1584.444946 423.985840,1587.345703 
z"/>
<path fill="#E5EBFF" opacity="1.000000" stroke="none" 
	d="
M1628.030762,1654.649170 
	C1633.734863,1657.481567 1639.549194,1660.905029 1645.280029,1664.463135 
	C1649.111084,1666.841553 1652.823364,1669.411621 1657.289551,1671.965088 
	C1657.978271,1672.929810 1657.966309,1673.825562 1657.904785,1675.392822 
	C1653.513916,1673.959229 1649.053955,1672.062866 1644.865356,1669.688110 
	C1640.893311,1667.436035 1637.205200,1664.682861 1632.694580,1662.057861 
	C1630.699707,1659.743042 1629.402466,1657.520142 1628.030762,1654.649170 
z"/>
</svg>