<svg width="3000" height="2000" version="1.1" xmlns="http://www.w3.org/2000/svg" desc="Created with imagetracer.js version 1.2.6" ><path fill="rgb(244,142,166)" stroke="rgb(244,142,166)" stroke-width="1" opacity="0.7176470588235294" d="M 1470.5 0 L 3000 0 L 3000 559.5 L 2998 558.5 Q 2974.1 522.4 2942.5 494 Q 2912 466 2875.5 444 Q 2829.9 417.1 2776.5 398 L 2741.5 386 L 2679.5 368 L 2511.5 327 L 2461.5 313 L 2409.5 296 L 2373.5 282 Q 2323 260.5 2278.5 233 Q 2227.4 201.6 2180.5 166 Q 2176.7 163.3 2168.5 165 L 2167.5 166 L 2139.5 168 L 2138.5 169 L 2094.5 172 L 2093.5 173 L 2080.5 173 L 2079.5 174 L 2066.5 174 L 2065.5 175 L 2027.5 176 L 2026.5 177 L 1965.5 178 L 1964.5 177 L 1909.5 176 L 1908.5 175 L 1884.5 174 L 1883.5 173 L 1874.5 173 L 1873.5 172 L 1865.5 172 L 1864.5 171 L 1835.5 168 L 1774.5 156 L 1733.5 145 L 1699.5 134 Q 1629.6 109.4 1570.5 74 L 1525.5 44 L 1473.5 4 L 1470.5 0 Z " /><path fill="rgb(244,142,166)" stroke="rgb(244,142,166)" stroke-width="1" opacity="0.7176470588235294" d="M 0.5 558 Q 57.2 612.8 104 677.5 Q 127.6 709.9 148 745.5 L 178 805.5 L 192 841.5 L 199 863.5 L 206 889.5 L 213 925.5 L 215 947.5 L 216 948.5 L 216 957.5 L 217 958.5 L 218 984.5 L 219 985.5 L 219 1009.5 L 220 1010.5 L 220 1080.5 L 219 1081.5 L 219 1148.5 L 218 1149.5 L 218 1161.5 L 219 1162.5 L 219 1203.5 L 220 1204.5 L 221 1234.5 L 222 1235.5 L 223 1253.5 L 224 1254.5 L 224 1261.5 L 225 1262.5 L 225 1268.5 L 229 1286.5 L 229 1291.5 L 242 1343.5 L 262 1398.5 Q 287.6 1457.9 323 1507.5 Q 359.6 1558.9 404.5 1602 Q 498.9 1693.6 631.5 1747 L 677.5 1763 L 730.5 1777 L 773.5 1786 L 778.5 1786 L 800.5 1791 L 867.5 1802 L 926.5 1814 L 983.5 1829 L 1042.5 1849 L 1043.5 1848 L 1065.5 1846 L 1066.5 1845 L 1086.5 1843 L 1113.5 1838 L 1126.5 1837 L 1133.5 1835 L 1161.5 1832 L 1169.5 1830 L 1176.5 1830 L 1177.5 1829 L 1184.5 1829 L 1185.5 1828 L 1193.5 1828 L 1194.5 1827 L 1226.5 1825 L 1227.5 1824 L 1243.5 1824 L 1244.5 1823 L 1297.5 1823 L 1298.5 1824 L 1312.5 1824 L 1313.5 1825 L 1322.5 1825 L 1323.5 1826 L 1345.5 1828 L 1401.5 1840 Q 1450 1853.5 1491.5 1874 Q 1584.5 1920 1651 1992.5 L 1657 1999.5 L 0 2000 L 0.5 558 Z " /><path fill="rgb(0,0,0)" stroke="rgb(0,0,0)" stroke-width="1" opacity="0" d="M 0 0 L 1469.5 0 Q 1521.5 45 1582.5 81 Q 1636.6 111.9 1699.5 134 L 1758.5 152 L 1787.5 159 L 1835.5 168 L 1864.5 171 L 1865.5 172 L 1873.5 172 L 1874.5 173 L 1883.5 173 L 1884.5 174 L 1908.5 175 L 1909.5 176 L 1986.5 178 L 1987.5 177 L 2026.5 177 L 2027.5 176 L 2065.5 175 L 2066.5 174 L 2093.5 173 L 2094.5 172 L 2105.5 172 L 2106.5 171 L 2116.5 171 L 2117.5 170 L 2158.5 167 L 2168.5 165 L 2178.5 165 Q 2231.1 204.4 2288.5 239 Q 2337.2 268.3 2393.5 290 L 2448.5 309 L 2489.5 321 L 2579.5 344 L 2583.5 344 L 2660.5 363 L 2664.5 365 L 2708.5 376 L 2765.5 394 L 2823.5 417 Q 2907.7 454.3 2966 517.5 L 3000 560.5 L 3000 2000 L 1657.5 2000 L 1651 1993.5 L 1621.5 1963 Q 1545.9 1892.1 1439.5 1852 L 1401.5 1840 L 1345.5 1828 L 1323.5 1826 L 1322.5 1825 L 1313.5 1825 L 1312.5 1824 L 1298.5 1824 L 1297.5 1823 L 1244.5 1823 L 1243.5 1824 L 1214.5 1825 L 1213.5 1826 L 1204.5 1826 L 1203.5 1827 L 1194.5 1827 L 1193.5 1828 L 1169.5 1830 L 1168.5 1831 L 1154.5 1832 L 1153.5 1833 L 1147.5 1833 L 1146.5 1834 L 1140.5 1834 L 1126.5 1837 L 1120.5 1837 L 1106.5 1840 L 1100.5 1840 L 1086.5 1843 L 1041.5 1849 L 983.5 1829 L 926.5 1814 L 867.5 1802 L 862.5 1802 L 845.5 1798 L 840.5 1798 L 828.5 1795 L 789.5 1789 L 778.5 1786 L 773.5 1786 L 698.5 1769 L 647.5 1753 L 621.5 1743 Q 481.8 1684.2 385 1582.5 Q 340.4 1536.1 305 1480.5 Q 275.3 1433.7 254 1378.5 L 238 1329.5 L 230 1296.5 L 225 1268.5 L 223 1245.5 L 222 1244.5 L 222 1235.5 L 221 1234.5 L 221 1222.5 L 220 1221.5 L 218 1149.5 L 219 1148.5 L 219 1081.5 L 220 1080.5 L 220 1010.5 L 219 1009.5 L 219 985.5 L 218 984.5 L 218 970.5 L 217 969.5 L 216 948.5 L 215 947.5 L 215 940.5 L 214 939.5 L 214 932.5 L 213 931.5 L 211 913.5 L 206 889.5 L 192 841.5 L 167 781.5 Q 139.4 725.6 104 677.5 Q 57 612.5 0 557.5 L 0 0 Z " /></svg>